<?xml version="1.0" encoding="UTF-8"?>
<svg id="_圖層_1" xmlns="http://www.w3.org/2000/svg" version="1.1" viewBox="0 0 1328.27 362.04">
  <!-- Generator: Adobe Illustrator 29.5.1, SVG Export Plug-In . SVG Version: 2.1.0 Build 141)  -->
  <defs>
    <style>
      .st0 {
        fill: #00a38b;
      }

      .st1, .st2 {
        fill: #006f5f;
      }

      .st3 {
        fill: #6a6966;
      }

      .st3, .st2 {
        fill-rule: evenodd;
      }
    </style>
  </defs>
  <g>
    <path class="st3" d="M340.66,40.41c29.62-4.89,73.17-9.3,79.22,5.63,9.29,22.9-9.49,44.64-16.51,55.02,0,0,4.94-29.24-24.22-7.93-23.63,17.27-113.61,92.56-72.9,228.04,0,0-73.23,14.59-121.09-27.91-60.32-53.56-50.65-148.24,14.71-197.17,51.2-38.34,122.56-52.55,140.8-55.68h0Z"/>
    <path class="st2" d="M344.13,34.78l-.4.14c-19.53,1.8-144.62,16.34-202.56,96.26-52.19,72-34.62,165.91,19.33,212.62-12.75-3.88-25.92-9.51-39.35-17.38C21.73,268.19,1.74,145.44,9.26,102.75c0,0,97.92-48.57,211.28-71.54,99.62-20.19,112.87-13.05,119.51-3.82.92,1.27,3.2,6.1,4.07,7.39h0Z"/>
  </g>
  <g>
    <g>
      <path class="st1" d="M469.05,151.82l13.39,3.45c-1.73,4.8-3.89,9.57-6.48,14.32-2.59,4.75-5.33,8.71-8.21,11.88-1.25-1.15-3.02-2.57-5.33-4.25-2.3-1.68-4.27-3-5.9-3.96,2.69-2.78,5.11-6.09,7.27-9.93,2.16-3.84,3.91-7.68,5.25-11.52ZM458.26,108.35h69.38v14.11h-69.38v-14.11ZM459.12,133.54h66.07v14.54h-66.07v-14.54ZM460.42,76.25h64.92v13.96h-64.92v-13.96ZM468.05,93.09l13.67-3.31c1.25,2.5,2.35,5.3,3.31,8.42.96,3.12,1.63,5.88,2.02,8.28l-14.39,3.89c-.19-2.3-.7-5.09-1.51-8.35-.82-3.26-1.85-6.24-3.09-8.92ZM485.75,117.27h15.55v61.75c0,3.45-.38,6.21-1.15,8.28-.77,2.06-2.26,3.67-4.46,4.82-2.11,1.05-4.63,1.73-7.56,2.02-2.93.29-6.36.43-10.29.43-.29-2.02-.86-4.37-1.73-7.05-.86-2.69-1.82-5.04-2.88-7.05,2.11.1,4.2.14,6.26.14h4.25c1.34,0,2.02-.62,2.02-1.87v-61.46ZM480.86,64.73l15.4-3.6c1.44,2.98,2.9,6.33,4.39,10.08,1.49,3.74,2.57,6.91,3.24,9.5l-16.27,4.32c-.48-2.69-1.37-5.95-2.66-9.79-1.3-3.84-2.66-7.34-4.1-10.51ZM503.46,89.64l15.55,2.88c-1.54,3.84-3.02,7.56-4.46,11.16s-2.83,6.65-4.17,9.14l-13.96-2.88c.77-1.92,1.61-4.05,2.52-6.41.91-2.35,1.77-4.77,2.59-7.27.81-2.49,1.46-4.7,1.94-6.62ZM503.75,156.71l11.23-6.19c2.3,3.17,4.53,6.69,6.69,10.58,2.16,3.89,3.86,7.22,5.11,10l-11.8,7.2c-1.15-2.88-2.81-6.36-4.97-10.44-2.16-4.08-4.25-7.8-6.26-11.16ZM531.67,75.67h15.98v50.81c0,5.28-.17,10.96-.5,17.06-.34,6.1-.98,12.26-1.94,18.5-.96,6.24-2.38,12.21-4.25,17.92-1.87,5.71-4.39,10.82-7.56,15.33-.86-1.06-2.14-2.26-3.81-3.6-1.68-1.34-3.38-2.64-5.11-3.89-1.73-1.25-3.17-2.16-4.32-2.74,3.55-5.37,6.14-11.42,7.77-18.14,1.63-6.72,2.66-13.58,3.1-20.58.43-7,.65-13.63.65-19.86v-50.81ZM575.43,63.15l13.39,12.81c-4.99,1.92-10.44,3.7-16.34,5.33-5.9,1.63-11.9,3.05-17.99,4.25-6.1,1.2-12.02,2.23-17.78,3.09-.29-1.82-.96-4.01-2.02-6.55-1.06-2.54-2.06-4.68-3.02-6.41,5.28-1.05,10.63-2.21,16.05-3.45,5.42-1.25,10.53-2.66,15.33-4.25,4.8-1.58,8.92-3.19,12.38-4.82ZM538.29,109.5h53.84v15.98h-53.84v-15.98ZM561.9,116.55h16.7v79.89h-16.7v-79.89Z"/>
      <path class="st1" d="M612.28,71.35h15.83v43.18c0,5.95-.17,12.48-.5,19.58-.34,7.1-1.01,14.37-2.02,21.81-1.01,7.44-2.45,14.66-4.32,21.66-1.87,7-4.39,13.34-7.56,19-.96-.86-2.3-1.82-4.03-2.88-1.73-1.06-3.48-2.04-5.25-2.95-1.78-.91-3.34-1.61-4.68-2.09,2.88-5.37,5.16-11.2,6.84-17.49,1.68-6.28,2.93-12.74,3.74-19.36.81-6.62,1.34-13.15,1.58-19.58.24-6.43.36-12.33.36-17.71v-43.18ZM631.71,176.44l12.52,5.18c-1.35,2.88-2.98,5.78-4.89,8.71-1.92,2.93-4.22,5.45-6.91,7.56l-12.52-6.48c2.49-1.82,4.8-4.15,6.91-6.98,2.11-2.83,3.74-5.49,4.89-7.99ZM620.63,71.35h113.86v13.24h-113.86v-13.24ZM645.96,83.45l12.09,4.03c-2.88,4.99-6.46,9.93-10.72,14.83-4.27,4.89-8.66,8.97-13.17,12.24-.38-.96-.99-2.21-1.8-3.74-.82-1.53-1.71-3.12-2.66-4.75-.96-1.63-1.82-2.93-2.59-3.89,3.65-2.3,7.17-5.11,10.58-8.42,3.41-3.31,6.17-6.74,8.28-10.29ZM636.32,131.67h15.26v44.19h-15.26v-44.19ZM636.32,171.25h85.07v7.2h-85.07v-7.2ZM637.61,101.01l8.49-8.49,3.89,1.3v33.68h-12.38v-26.49ZM643.37,160.75h92.7v6.91h-92.7v-6.91ZM643.66,131.67h78.31v25.19h-78.31v-6.19h62.76v-12.81h-62.76v-6.19ZM646.54,141.46h62.33v5.47h-62.33v-5.47ZM647.12,182.48l11.95-2.73c1.15,2.02,2.18,4.27,3.09,6.77.91,2.5,1.51,4.7,1.8,6.62l-12.52,3.45c-.19-2.01-.7-4.34-1.51-6.98-.82-2.64-1.75-5.01-2.81-7.12ZM666.55,83.88l11.8,3.45c-2.69,4.99-6.02,9.96-10,14.9-3.98,4.94-7.99,9.09-12.02,12.45-.96-1.15-2.35-2.66-4.17-4.53-1.82-1.87-3.41-3.33-4.75-4.39,3.84-2.78,7.46-6.12,10.87-10,3.41-3.89,6.16-7.85,8.28-11.88ZM660.5,101.3l9.07-8.92,4.17,1.3v33.25h-13.24v-25.62ZM663.09,64.73l15.69-4.32c1.44,2.11,2.81,4.46,4.1,7.05,1.29,2.59,2.28,4.85,2.95,6.77l-16.7,4.89c-.48-2.02-1.29-4.37-2.45-7.05-1.15-2.69-2.35-5.13-3.6-7.34ZM671.15,125.33l15.4,2.16c-1.82,1.92-3.58,3.58-5.25,4.97-1.68,1.39-3.19,2.66-4.53,3.81l-12.23-2.59c1.15-1.44,2.35-2.93,3.6-4.46,1.25-1.53,2.25-2.83,3.02-3.89ZM667.12,182.62l11.37-3.31c1.34,1.92,2.64,4.08,3.89,6.48,1.25,2.4,2.16,4.51,2.73,6.33l-11.8,4.03c-.38-1.92-1.18-4.13-2.38-6.62-1.2-2.5-2.47-4.8-3.82-6.91ZM670.29,118.28h60.03v6.48h-60.03v-6.48ZM670.43,100.86h55.13v5.47h-55.13v-5.47ZM670.43,109.79h55.13v5.47h-55.13v-5.47ZM673.31,90.79h55.85v6.48h-55.85v-6.48ZM686.56,181.9l10.22-3.89c1.73,1.54,3.36,3.34,4.89,5.4,1.53,2.06,2.69,3.91,3.46,5.54l-10.8,4.61c-.67-1.63-1.75-3.55-3.24-5.76-1.49-2.21-3-4.17-4.54-5.9ZM691.02,86.61l12.38-3.89c1.15,1.54,2.25,3.26,3.31,5.18,1.06,1.92,1.78,3.6,2.16,5.04l-12.81,4.32c-.38-1.44-1.06-3.17-2.02-5.18-.96-2.02-1.97-3.84-3.02-5.47ZM692.75,93.38h13.96v28.65h-13.96v-28.65ZM714.62,171.25h16.7c0,2.11-.1,3.55-.29,4.32-.48,5.18-1.1,9.14-1.87,11.88-.77,2.74-1.82,4.77-3.17,6.12-1.06,1.15-2.35,1.97-3.89,2.45-1.54.48-3.07.77-4.61.86-1.44.09-3.38.14-5.83.14s-5.11-.1-7.99-.29c-.1-1.25-.41-2.74-.94-4.46-.53-1.73-1.13-3.22-1.8-4.46,1.73.19,3.26.33,4.61.43,1.34.09,2.4.09,3.17,0,.58,0,1.1-.07,1.58-.22.48-.14.96-.41,1.44-.79.58-.77,1.1-2.21,1.58-4.32.48-2.11.91-5.42,1.29-9.93v-1.73Z"/>
      <path class="st1" d="M793.22,61.85l17.85,4.03c-3.36,10.75-7.56,21.43-12.6,32.03-5.04,10.6-11.08,20.46-18.14,29.58-7.05,9.12-15.28,16.94-24.69,23.46-.86-1.25-1.99-2.71-3.38-4.39-1.39-1.68-2.79-3.31-4.17-4.89-1.39-1.58-2.66-2.9-3.81-3.96,6.33-4.22,12.11-9.21,17.35-14.97,5.23-5.76,9.88-12.02,13.96-18.79,4.08-6.77,7.58-13.72,10.51-20.87,2.93-7.15,5.3-14.23,7.12-21.23ZM748.6,79.27h128.4v16.27h-128.4v-16.27ZM774.65,106.91h72.69v15.11h-55.71v75h-16.99v-90.11ZM787.46,131.24h62.47v14.39h-62.47v-14.39ZM787.46,154.99h62.47v14.39h-62.47v-14.39ZM843.89,106.91h16.99v71.54c0,4.22-.5,7.58-1.51,10.08-1.01,2.49-3,4.41-5.97,5.76-2.88,1.34-6.43,2.16-10.65,2.45-4.22.29-9.26.43-15.11.43-.29-2.4-.94-5.21-1.94-8.42-1.01-3.22-2.09-5.97-3.24-8.28,2.49.1,4.99.19,7.49.29,2.49.1,4.73.14,6.69.14h4.1c1.25-.09,2.09-.34,2.52-.72.43-.38.65-1.06.65-2.02v-71.25Z"/>
      <path class="st1" d="M895.71,67.61h34.55v15.4h-19.58v113.57h-14.97V67.61ZM927.23,67.61h2.74l2.45-.72,11.37,6.48c-1.92,6.05-3.96,12.45-6.12,19.22s-4.3,12.93-6.41,18.5c4.32,5.76,7.15,11.16,8.49,16.19,1.34,5.04,2.02,9.67,2.02,13.89,0,4.7-.5,8.61-1.51,11.73-1.01,3.12-2.66,5.59-4.97,7.41-1.15.86-2.42,1.54-3.81,2.02-1.39.48-2.86.86-4.39,1.15-1.34.19-2.83.29-4.46.29h-5.04c0-2.02-.34-4.46-1.01-7.34-.67-2.88-1.58-5.37-2.74-7.49,1.34.1,2.52.17,3.53.22,1.01.05,1.94.02,2.81-.07,1.53,0,2.83-.38,3.89-1.15.96-.58,1.61-1.63,1.94-3.17.34-1.53.5-3.36.5-5.47,0-3.46-.62-7.44-1.87-11.95-1.25-4.51-3.94-9.31-8.06-14.39,1.05-3.26,2.09-6.77,3.09-10.51s1.99-7.49,2.95-11.23c.96-3.74,1.85-7.27,2.66-10.58.81-3.31,1.46-6.07,1.94-8.28v-4.75ZM948.54,197.45c-.38-1.25-1.01-2.74-1.87-4.46-.86-1.73-1.78-3.43-2.73-5.11-.96-1.68-1.87-3-2.74-3.96,1.53-.86,3.05-2.33,4.53-4.39,1.49-2.06,2.23-4.77,2.23-8.13v-103.64h16.84v114.15c-2.21,1.35-4.1,2.57-5.69,3.67-1.58,1.1-3.19,2.35-4.82,3.74-1.63,1.39-3,2.81-4.1,4.25-1.1,1.44-1.66,2.74-1.66,3.89ZM948.54,197.45l-1.44-14.97,7.05-5.47,30.8-6.62c0,2.4.05,5.13.14,8.21.09,3.07.29,5.57.58,7.48-7.01,1.73-12.76,3.21-17.27,4.46-4.51,1.25-8.06,2.28-10.65,3.09-2.59.81-4.56,1.53-5.9,2.16-1.35.62-2.45,1.17-3.31,1.66ZM956.02,67.76h57.43v66.36h-57.43v-14.97h40.59v-36.56h-40.59v-14.83ZM957.17,93.67h48.94v13.96h-48.94v-13.96ZM986.11,125.33c1.92,8.45,4.56,16.34,7.92,23.68,3.36,7.34,7.6,13.82,12.74,19.43,5.13,5.61,11.2,10,18.21,13.17-1.25,1.15-2.62,2.59-4.1,4.32-1.49,1.73-2.88,3.53-4.17,5.4-1.29,1.87-2.38,3.62-3.24,5.25-7.68-4.32-14.18-9.81-19.5-16.48-5.33-6.67-9.74-14.44-13.24-23.32-3.5-8.88-6.41-18.5-8.71-28.86l14.11-2.59ZM1010.58,135.41l11.23,12.24c-2.59,2.02-5.35,4.13-8.28,6.33-2.93,2.21-5.81,4.25-8.64,6.12-2.83,1.87-5.5,3.53-7.99,4.97l-8.92-10.8c2.21-1.53,4.73-3.36,7.56-5.47,2.83-2.11,5.56-4.34,8.2-6.69,2.64-2.35,4.92-4.58,6.84-6.69Z"/>
      <path class="st1" d="M1071.32,65.17l19,5.33c-3.17,7.77-6.91,15.4-11.23,22.89-4.32,7.49-8.92,14.39-13.82,20.73-4.89,6.33-9.88,11.85-14.97,16.55-1.25-1.15-2.83-2.52-4.75-4.1-1.92-1.58-3.94-3.12-6.05-4.61-2.11-1.49-3.94-2.71-5.47-3.67,5.28-4.03,10.24-8.85,14.9-14.47,4.65-5.61,8.92-11.73,12.81-18.35,3.89-6.62,7.08-13.39,9.57-20.3ZM1050.3,189.97c-.29-1.34-.82-3.12-1.58-5.33-.77-2.21-1.61-4.51-2.52-6.91-.91-2.4-1.75-4.41-2.52-6.05,2.3-.67,4.46-1.92,6.48-3.74,2.02-1.82,4.37-4.37,7.05-7.63,1.53-1.63,3.67-4.29,6.41-7.99,2.73-3.69,5.73-8.08,9-13.17,3.26-5.09,6.55-10.58,9.86-16.48s6.31-11.88,9-17.92l19.29,8.2c-4.42,8.45-9.28,16.72-14.61,24.83-5.33,8.11-10.82,15.69-16.48,22.74-5.66,7.05-11.28,13.46-16.84,19.22v.58c-2.59,1.35-4.7,2.5-6.33,3.46-1.63.96-3.07,1.99-4.32,3.09-1.25,1.1-1.87,2.13-1.87,3.09ZM1050.3,189.97l-.58-14.68,10.94-6.33,73.99-5.04c.38,2.69.96,5.61,1.73,8.78.77,3.17,1.44,5.76,2.02,7.77-11.9.96-22.17,1.82-30.8,2.59-8.64.77-16,1.41-22.09,1.94-6.1.53-11.16,1.01-15.19,1.44-4.03.43-7.32.81-9.86,1.15-2.54.33-4.58.7-6.12,1.08-1.54.38-2.88.81-4.03,1.3ZM1128.04,64.16c2.21,4.51,4.84,9.14,7.92,13.89,3.07,4.75,6.45,9.38,10.15,13.89,3.69,4.51,7.46,8.83,11.3,12.96,3.84,4.13,7.53,7.73,11.08,10.8-1.54,1.15-3.22,2.59-5.04,4.32-1.82,1.73-3.58,3.53-5.25,5.4-1.68,1.87-3.1,3.58-4.25,5.11-3.55-3.74-7.27-7.94-11.16-12.6-3.89-4.65-7.75-9.57-11.59-14.75-3.84-5.18-7.46-10.51-10.87-15.98-3.41-5.47-6.5-10.84-9.28-16.12l16.99-6.91ZM1114.22,145.49l16.41-7.49c4.03,5.28,8.13,10.92,12.31,16.91,4.17,6,8.06,11.85,11.66,17.56,3.6,5.71,6.55,10.82,8.85,15.33l-17.27,9.36c-2.21-4.51-5.06-9.79-8.57-15.83-3.5-6.05-7.32-12.21-11.44-18.5-4.13-6.28-8.11-12.07-11.95-17.35Z"/>
      <path class="st1" d="M1183.89,70.64h107.24v16.41h-107.24v-16.41ZM1185.33,97.27h85.21v15.11h-85.21v-15.11ZM1192.67,123.03h16.84v59.45h-16.84v-59.45ZM1207.64,123.03h55.27v48.94h-55.27v-14.83h38.29v-19.29h-38.29v-14.83ZM1284.94,70.64h17.85v104.65c0,4.89-.55,8.76-1.66,11.59-1.1,2.83-3.19,5.01-6.26,6.55-2.98,1.53-6.82,2.49-11.52,2.88-4.7.38-10.32.53-16.84.43-.19-1.73-.58-3.72-1.15-5.97-.58-2.26-1.25-4.53-2.02-6.84-.77-2.3-1.58-4.27-2.45-5.9,2.78.19,5.56.31,8.35.36,2.78.05,5.28.05,7.48,0,2.21-.05,3.79-.07,4.75-.07,1.34,0,2.25-.24,2.73-.72.48-.48.72-1.39.72-2.73v-104.22Z"/>
    </g>
    <g>
      <path class="st0" d="M458.7,300.38v-64.36h14.38l17.33,32.57,6.41,14.12h.43c-.4-3.41-.82-7.18-1.26-11.31-.43-4.13-.65-8.1-.65-11.91v-23.48h13.43v64.36h-14.38l-17.24-32.75-6.41-13.86h-.43c.29,3.46.66,7.22,1.13,11.26.46,4.04.69,7.97.69,11.78v23.56h-13.43Z"/>
      <path class="st0" d="M524.28,300.38v-64.36h40.11v11.78h-25.99v13.43h22v11.87h-22v15.42h26.94v11.87h-41.06Z"/>
      <path class="st0" d="M584.05,300.38l-12.04-64.36h14.38l4.59,30.41c.46,3.35.94,6.73,1.43,10.14.49,3.41.94,6.84,1.34,10.31h.35c.69-3.47,1.36-6.9,1.99-10.31.63-3.41,1.3-6.79,1.99-10.14l6.93-30.41h12.04l7.1,30.41c.64,3.29,1.27,6.66,1.91,10.09.63,3.44,1.3,6.89,1.99,10.35h.43c.4-3.47.82-6.9,1.26-10.31.43-3.41.88-6.79,1.34-10.14l4.68-30.41h13.43l-11.52,64.36h-17.76l-6.5-29.89c-.52-2.48-1.01-4.98-1.47-7.49-.46-2.51-.84-4.98-1.13-7.41h-.35c-.4,2.43-.84,4.89-1.3,7.41-.46,2.51-.92,5.01-1.39,7.49l-6.32,29.89h-17.41Z"/>
      <path class="st0" d="M678.13,300.38v-64.36h40.11v11.78h-25.99v13.43h22v11.87h-22v15.42h26.94v11.87h-41.06Z"/>
      <path class="st0" d="M723.87,300.38l20.27-64.36h16.81l20.27,64.36h-14.81l-8.66-32.83c-.92-3.29-1.82-6.74-2.69-10.35-.87-3.61-1.73-7.09-2.6-10.44h-.35c-.81,3.41-1.66,6.9-2.56,10.48-.9,3.58-1.78,7.02-2.64,10.31l-8.66,32.83h-14.38ZM737.03,284.7v-10.92h30.84v10.92h-30.84Z"/>
      <path class="st0" d="M815.17,301.59c-5.89,0-11.19-1.26-15.9-3.77-4.71-2.51-8.46-6.22-11.26-11.13-2.8-4.91-4.2-10.97-4.2-18.19,0-5.31.82-10.05,2.47-14.21,1.65-4.16,3.9-7.68,6.76-10.57,2.86-2.89,6.16-5.08,9.92-6.58,3.75-1.5,7.8-2.25,12.13-2.25,4.68,0,8.68.85,12,2.56,3.32,1.7,6.05,3.62,8.19,5.76l-7.45,9.01c-1.62-1.5-3.37-2.74-5.24-3.73-1.88-.98-4.23-1.47-7.06-1.47-3.35,0-6.32.84-8.92,2.51-2.6,1.68-4.63,4.09-6.11,7.23-1.47,3.15-2.21,6.92-2.21,11.3s.68,8.27,2.04,11.48c1.36,3.21,3.41,5.65,6.15,7.32,2.74,1.68,6.14,2.51,10.18,2.51,1.39,0,2.71-.17,3.99-.52,1.27-.35,2.31-.84,3.12-1.47v-11.52h-10.83v-11.61h23.39v29.54c-2.2,2.14-5.15,3.97-8.88,5.5-3.73,1.53-7.81,2.3-12.26,2.3Z"/>
      <path class="st0" d="M849.73,300.38v-64.36h14.12v52.5h25.64v11.87h-39.76Z"/>
      <path class="st0" d="M900.67,300.38v-64.36h40.11v11.78h-25.99v13.43h22v11.87h-22v15.42h26.94v11.87h-41.06Z"/>
      <path class="st0" d="M974.65,300.38v-64.02h11.44v54.4h26.59v9.62h-38.03Z"/>
      <path class="st0" d="M1023.85,300.38v-64.02h11.44v64.02h-11.44Z"/>
      <path class="st0" d="M1051.49,300.38v-64.02h12.91l11.26,31.27c.69,1.96,1.39,4.01,2.08,6.15.69,2.14,1.36,4.25,1.99,6.32h.43c.69-2.08,1.37-4.19,2.04-6.32.66-2.14,1.31-4.19,1.95-6.15l11.09-31.27h12.91v64.02h-10.48v-29.11c0-2.02.09-4.23.26-6.63.17-2.4.37-4.81.61-7.23.23-2.43.43-4.62.61-6.58h-.35l-5.2,14.9-10.48,28.67h-6.84l-10.48-28.67-5.11-14.9h-.35c.23,1.96.45,4.16.65,6.58.2,2.43.39,4.84.56,7.23.17,2.4.26,4.61.26,6.63v29.11h-10.31Z"/>
      <path class="st0" d="M1124.43,300.38v-64.02h11.44v64.02h-11.44Z"/>
      <path class="st0" d="M1164.88,300.38v-54.4h-18.37v-9.62h48.34v9.62h-18.45v54.4h-11.52Z"/>
      <path class="st0" d="M1205.6,300.38v-64.02h38.55v9.62h-27.11v16.29h22.96v9.62h-22.96v18.89h28.07v9.62h-39.5Z"/>
      <path class="st0" d="M1258.27,300.38v-64.02h17.07c6.58,0,12.2,1.18,16.85,3.55,4.65,2.37,8.2,5.89,10.66,10.57,2.45,4.68,3.68,10.57,3.68,17.67s-1.23,12.97-3.68,17.76c-2.46,4.79-5.96,8.4-10.53,10.83-4.56,2.43-10.02,3.64-16.37,3.64h-17.67ZM1269.7,291.11h4.85c4.27,0,7.93-.82,10.96-2.47,3.03-1.65,5.34-4.17,6.93-7.58,1.59-3.41,2.38-7.71,2.38-12.91s-.79-9.62-2.38-12.91c-1.59-3.29-3.9-5.72-6.93-7.28s-6.69-2.34-10.96-2.34h-4.85v45.48Z"/>
    </g>
  </g>
</svg>