<?xml version="1.0" encoding="UTF-8"?>
<svg id="_圖層_1" data-name="圖層_1" xmlns="http://www.w3.org/2000/svg" version="1.1" viewBox="0 0 63 49">
  <!-- Generator: Adobe Illustrator 29.1.0, SVG Export Plug-In . SVG Version: 2.1.0 Build 142)  -->
  <defs>
    <style>
      .st0 {
        fill: none;
        stroke: #00a38b;
        stroke-linecap: round;
        stroke-linejoin: round;
      }
    </style>
  </defs>
  <path class="st0" d="M5.5,14.5V.5h52v4M31.5,40.5h-10"/>
  <line class="st0" x1="21.5" y1="48.5" x2="32.5" y2="48.5"/>
  <line class="st0" x1="27.5" y1="48.5" x2="28.5" y2="44.5"/>
  <path class="st0" d="M2.5,18.5h13c1.1,0,2,.9,2,2v26c0,1.1-.9,2-2,2H2.5c-1.1,0-2-.9-2-2v-26c0-1.1.9-2,2-2Z"/>
  <path class="st0" d="M37.5,8.5h23c1.1,0,2,.9,2,2v36c0,1.1-.9,2-2,2h-23c-1.1,0-2-.9-2-2V10.5c0-1.1.9-2,2-2Z"/>
  <line class="st0" x1="21.5" y1="35.5" x2="31.5" y2="35.5"/>
  <line class="st0" x1=".5" y1="43.5" x2="17.5" y2="43.5"/>
  <line class="st0" x1=".5" y1="22.5" x2="17.5" y2="22.5"/>
  <line class="st0" x1="35.5" y1="13.5" x2="62.5" y2="13.5"/>
  <line class="st0" x1="35.5" y1="43.5" x2="62.5" y2="43.5"/>
</svg>