<?xml version="1.0" encoding="UTF-8"?>
<svg id="_圖層_1" data-name="圖層_1" xmlns="http://www.w3.org/2000/svg" version="1.1" viewBox="0 0 46.3 41">
  <!-- Generator: Adobe Illustrator 29.1.0, SVG Export Plug-In . SVG Version: 2.1.0 Build 142)  -->
  <defs>
    <style>
      .st0 {
        fill: #00a38b;
      }
    </style>
  </defs>
  <rect class="st0" x="3.6" y="4.9" width="3.2" height="1"/>
  <rect class="st0" x="8.4" y="4.9" width="3.2" height="1"/>
  <rect class="st0" x="13.3" y="4.9" width="3.2" height="1"/>
  <path class="st0" d="M1,1h44.3v39H1V1ZM0,41h46.3V0H0v41Z"/>
  <rect class="st0" x=".5" y="10" width="45.3" height="1"/>
  <polygon class="st0" points="16.5 31 9.6 24.9 16.1 18.5 16.8 19.2 11.1 24.9 17.2 30.2 16.5 31"/>
  <polygon class="st0" points="30.2 31.3 29.5 30.6 35.2 25 29.1 19.6 29.8 18.8 36.6 24.9 30.2 31.3"/>
  <rect class="st0" x="14" y="22.9" width="18.3" height="1" transform="translate(-5.1 40.1) rotate(-76)"/>
</svg>