<?xml version="1.0" encoding="utf-8"?>
<!-- Generator: Adobe Illustrator 16.0.0, SVG Export Plug-In . SVG Version: 6.00 Build 0)  -->
<!DOCTYPE svg PUBLIC "-//W3C//DTD SVG 1.1//EN" "http://www.w3.org/Graphics/SVG/1.1/DTD/svg11.dtd">
<svg version="1.1" id="圖層_1" xmlns="http://www.w3.org/2000/svg" xmlns:xlink="http://www.w3.org/1999/xlink" x="0px" y="0px"
	 width="46.334px" height="40.978px" viewBox="0 0 46.334 40.978" enable-background="new 0 0 46.334 40.978" xml:space="preserve">
<rect x="3.552" y="4.875" fill="#cf4d52" width="3.25" height="1"/>
<rect x="8.428" y="4.875" fill="#cf4d52" width="3.25" height="1"/>
<rect x="13.302" y="4.875" fill="#cf4d52" width="3.25" height="1"/>
<path fill="#cf4d52" d="M1,1h44.334v38.978H1V1z M0,40.978h46.334V0H0V40.978z"/>
<rect x="0.469" y="10" fill="#cf4d52" width="45.333" height="1"/>
<polygon fill="#cf4d52" points="16.492,30.971 9.636,24.911 16.053,18.493 16.76,19.2 11.095,24.867 17.154,30.222 "/>
<polygon fill="#cf4d52" points="30.218,31.326 29.511,30.619 35.176,24.953 29.117,19.596 29.779,18.847 36.635,24.908 "/>
<rect x="22.635" y="14.23" transform="matrix(0.9702 0.2422 -0.2422 0.9702 6.347 -4.9076)" fill="#cf4d52" width="1" height="18.266"/>
</svg>
