<?xml version="1.0" encoding="utf-8"?>
<!-- Generator: Adobe Illustrator 16.0.0, SVG Export Plug-In . SVG Version: 6.00 Build 0)  -->
<!DOCTYPE svg PUBLIC "-//W3C//DTD SVG 1.1//EN" "http://www.w3.org/Graphics/SVG/1.1/DTD/svg11.dtd">
<svg version="1.1" id="圖層_1" xmlns="http://www.w3.org/2000/svg" xmlns:xlink="http://www.w3.org/1999/xlink" x="0px" y="0px"
	 width="44.666px" height="49.343px" viewBox="0 0 44.666 49.343" enable-background="new 0 0 44.666 49.343" xml:space="preserve">
<polygon fill="#cf4d52" points="0,0 0,31.166 11.781,31.166 11.781,30.166 1,30.166 1,1 43.666,1 43.666,30.166 32.782,30.166
	32.782,31.166 44.666,31.166 44.666,0 "/>
<rect x="0.5" y="4.579" fill="#cf4d52" width="43.665" height="1"/>
<rect x="2.748" y="2.162" fill="#cf4d52" width="2.521" height="1"/>
<rect x="7.228" y="2.162" fill="#cf4d52" width="2.52" height="1"/>
<rect x="11.706" y="2.162" fill="#cf4d52" width="2.521" height="1"/>
<g>
	<defs>
		<rect id="SVGID_1_" width="44.666" height="49.343"/>
	</defs>
	<clipPath id="SVGID_2_">
		<use xlink:href="#SVGID_1_"  overflow="visible"/>
	</clipPath>
	<path clip-path="url(#SVGID_2_)" fill="#cf4d52" d="M26.325,39.347h-8.031c-0.828,0-1.501-0.673-1.501-1.502v-3.568
		c0-2.581-0.965-5.079-2.718-7.034c-1.884-2.102-2.857-4.868-2.738-7.79c0.229-5.575,4.746-10.205,10.286-10.539
		c3.083-0.18,5.988,0.867,8.213,2.962c2.207,2.077,3.473,5.016,3.473,8.061c0,2.77-1.005,5.391-2.829,7.382
		c-1.711,1.866-2.653,4.421-2.653,7.193v3.333C27.827,38.674,27.153,39.347,26.325,39.347 M22.313,9.78
		c-0.212,0-0.423,0.006-0.636,0.019c-5.091,0.307-9.242,4.564-9.451,9.69c-0.109,2.688,0.782,5.232,2.511,7.161
		c1.899,2.117,2.945,4.826,2.945,7.626v3.568c0,0.339,0.276,0.613,0.613,0.613h8.031c0.339,0,0.614-0.274,0.614-0.613v-3.333
		c0-2.994,1.024-5.763,2.887-7.794c1.675-1.826,2.596-4.234,2.596-6.781c0-2.843-1.134-5.476-3.193-7.415
		C27.337,10.74,24.901,9.78,22.313,9.78"/>
	<path clip-path="url(#SVGID_2_)" fill="#cf4d52" d="M27.04,43.964h-9.466v-0.889h6.502l-6.633-2.032
		c-0.209-0.064-0.341-0.272-0.308-0.49c0.032-0.217,0.219-0.378,0.439-0.378h9.724v0.888h-6.761l6.633,2.032
		c0.21,0.064,0.342,0.272,0.309,0.491C27.446,43.803,27.259,43.964,27.04,43.964"/>
	<path clip-path="url(#SVGID_2_)" fill="#cf4d52" d="M23.588,49.343h-2.24c-1.94,0-3.517-1.577-3.517-3.516v-0.625
		c0-0.245,0.2-0.444,0.445-0.444h8.384c0.246,0,0.443,0.199,0.443,0.444v0.625C27.104,47.766,25.526,49.343,23.588,49.343
		 M18.72,45.646v0.182c0,1.448,1.179,2.628,2.628,2.628h2.24c1.449,0,2.628-1.18,2.628-2.628v-0.182H18.72z"/>
	<path clip-path="url(#SVGID_2_)" fill="#cf4d52" d="M21.383,25.426c-0.113,0-0.227-0.043-0.313-0.13l-3.108-3.107l0.627-0.628
		l2.794,2.793l5.79-5.79l0.628,0.628l-6.104,6.104C21.611,25.383,21.496,25.426,21.383,25.426"/>
</g>
</svg>
