<?xml version="1.0" encoding="UTF-8"?>
<svg id="_圖層_1" data-name="圖層_1" xmlns="http://www.w3.org/2000/svg" xmlns:xlink="http://www.w3.org/1999/xlink" version="1.1" viewBox="0 0 44.7 49.3">
  <!-- Generator: Adobe Illustrator 29.1.0, SVG Export Plug-In . SVG Version: 2.1.0 Build 142)  -->
  <defs>
    <style>
      .st0 {
        fill: none;
      }

      .st1 {
        fill: #00a38b;
      }

      .st2 {
        clip-path: url(#clippath-1);
      }

      .st3 {
        clip-path: url(#clippath-3);
      }

      .st4 {
        clip-path: url(#clippath-2);
      }

      .st5 {
        clip-path: url(#clippath);
      }
    </style>
    <clipPath id="clippath">
      <rect class="st0" width="44.7" height="49.3"/>
    </clipPath>
    <clipPath id="clippath-1">
      <rect class="st0" width="44.7" height="49.3"/>
    </clipPath>
    <clipPath id="clippath-2">
      <rect class="st0" width="44.7" height="49.3"/>
    </clipPath>
    <clipPath id="clippath-3">
      <rect class="st0" width="44.7" height="49.3"/>
    </clipPath>
  </defs>
  <polygon class="st1" points="0 0 0 31.2 11.8 31.2 11.8 30.2 1 30.2 1 1 43.7 1 43.7 30.2 32.8 30.2 32.8 31.2 44.7 31.2 44.7 0 0 0"/>
  <rect class="st1" x=".5" y="4.6" width="43.7" height="1"/>
  <rect class="st1" x="2.7" y="2.2" width="2.5" height="1"/>
  <rect class="st1" x="7.2" y="2.2" width="2.5" height="1"/>
  <rect class="st1" x="11.7" y="2.2" width="2.5" height="1"/>
  <g class="st5">
    <path class="st1" d="M26.3,39.3h-8c-.8,0-1.5-.7-1.5-1.5v-3.6c0-2.6-1-5.1-2.7-7-1.9-2.1-2.9-4.9-2.7-7.8.2-5.6,4.7-10.2,10.3-10.5,3.1-.2,6,.9,8.2,3,2.2,2.1,3.5,5,3.5,8.1s-1,5.4-2.8,7.4c-1.7,1.9-2.7,4.4-2.7,7.2v3.3c0,.8-.7,1.5-1.5,1.5M22.3,9.8c-.2,0-.4,0-.6,0-5.1.3-9.2,4.6-9.5,9.7-.1,2.7.8,5.2,2.5,7.2,1.9,2.1,2.9,4.8,2.9,7.6v3.6c0,.3.3.6.6.6h8c.3,0,.6-.3.6-.6v-3.3c0-3,1-5.8,2.9-7.8,1.7-1.8,2.6-4.2,2.6-6.8s-1.1-5.5-3.2-7.4c-1.9-1.8-4.3-2.7-6.9-2.7"/>
  </g>
  <g class="st2">
    <path class="st1" d="M27,44h-9.5v-.9h6.5l-6.6-2c-.2,0-.3-.3-.3-.5,0-.2.2-.4.4-.4h9.7v.9h-6.8l6.6,2c.2,0,.3.3.3.5,0,.2-.2.4-.4.4"/>
  </g>
  <g class="st4">
    <path class="st1" d="M23.6,49.3h-2.2c-1.9,0-3.5-1.6-3.5-3.5v-.6c0-.2.2-.4.4-.4h8.4c.2,0,.4.2.4.4v.6c0,1.9-1.6,3.5-3.5,3.5M18.7,45.6v.2c0,1.4,1.2,2.6,2.6,2.6h2.2c1.4,0,2.6-1.2,2.6-2.6v-.2h-7.5Z"/>
  </g>
  <g class="st3">
    <path class="st1" d="M21.4,25.4c-.1,0-.2,0-.3-.1l-3.1-3.1.6-.6,2.8,2.8,5.8-5.8.6.6-6.1,6.1c0,0-.2.1-.3.1"/>
  </g>
</svg>