<?xml version="1.0" encoding="utf-8"?>
<!-- Generator: Adobe Illustrator 16.0.0, SVG Export Plug-In . SVG Version: 6.00 Build 0)  -->
<!DOCTYPE svg PUBLIC "-//W3C//DTD SVG 1.1//EN" "http://www.w3.org/Graphics/SVG/1.1/DTD/svg11.dtd">
<svg version="1.1" id="圖層_1" xmlns="http://www.w3.org/2000/svg" xmlns:xlink="http://www.w3.org/1999/xlink" x="0px" y="0px"
	 width="37.009px" height="60px" viewBox="0 0 37.009 60" enable-background="new 0 0 37.009 60" xml:space="preserve">
<g>
	<defs>
		<rect id="SVGID_1_" width="37.009" height="60"/>
	</defs>
	<clipPath id="SVGID_2_">
		<use xlink:href="#SVGID_1_"  overflow="visible"/>
	</clipPath>
	<path clip-path="url(#SVGID_2_)" fill="#cf4d52" d="M18.505,40c2.059-7.773,6.415-14.744,12.5-20l-5-14h1.889l1.111-6h-21l1.109,6
		h1.891l-5,14C12.09,25.256,16.446,32.227,18.505,40 M18.505,18c-0.829,0-1.5-0.671-1.5-1.5s0.671-1.5,1.5-1.5
		c0.828,0,1.5,0.671,1.5,1.5S19.333,18,18.505,18 M9.945,5l-0.74-4h18.599l-0.739,4H9.945z M24.945,6l4.89,13.69
		c-4.758,4.266-8.465,9.574-10.83,15.51V19c1.353-0.276,2.226-1.597,1.949-2.95c-0.276-1.352-1.597-2.225-2.949-1.949
		c-1.353,0.276-2.226,1.597-1.95,2.949c0.201,0.982,0.968,1.75,1.95,1.95v16.2c-2.366-5.936-6.073-11.244-10.83-15.51L12.065,6
		H24.945z M35.505,48c0.828,0.002,1.502-0.667,1.504-1.496c0.002-0.828-0.667-1.502-1.496-1.504c-0.637-0.002-1.206,0.399-1.419,1
		H21.005v-2h-5v2H2.915C2.638,45.219,1.781,44.81,1,45.086S-0.19,46.219,0.086,47C0.363,47.781,1.219,48.19,2,47.914
		c0.427-0.15,0.763-0.487,0.915-0.914h9.139C5.475,49.27,1.005,54.32,1.005,60h1c0-6.22,5.88-11.66,14-13v2h5v-2
		c8.12,1.31,14,6.74,14,13h1c0-5.69-4.46-10.74-11-13h9.139C34.352,47.579,34.89,47.975,35.505,48 M20.005,48h-3v-3h3V48z"/>
</g>
</svg>
