<?xml version="1.0" encoding="UTF-8"?>
<svg id="_圖層_1" data-name="圖層_1" xmlns="http://www.w3.org/2000/svg" xmlns:xlink="http://www.w3.org/1999/xlink" version="1.1" viewBox="0 0 37 60">
  <!-- Generator: Adobe Illustrator 29.1.0, SVG Export Plug-In . SVG Version: 2.1.0 Build 142)  -->
  <defs>
    <style>
      .st0 {
        fill: none;
      }

      .st1 {
        fill: #00a38b;
      }

      .st2 {
        clip-path: url(#clippath);
      }
    </style>
    <clipPath id="clippath">
      <rect class="st0" width="37" height="60"/>
    </clipPath>
  </defs>
  <g class="st2">
    <path class="st1" d="M18.5,40c2.1-7.8,6.4-14.7,12.5-20l-5-14h1.9l1.1-6H8l1.1,6h1.9l-5,14c6.1,5.3,10.4,12.2,12.5,20M18.5,18c-.8,0-1.5-.7-1.5-1.5s.7-1.5,1.5-1.5,1.5.7,1.5,1.5-.7,1.5-1.5,1.5M9.9,5l-.7-4h18.6l-.7,4H9.9ZM24.9,6l4.9,13.7c-4.8,4.3-8.5,9.6-10.8,15.5v-16.2c1.4-.3,2.2-1.6,1.9-3-.3-1.4-1.6-2.2-2.9-1.9-1.4.3-2.2,1.6-2,2.9.2,1,1,1.8,2,2v16.2c-2.4-5.9-6.1-11.2-10.8-15.5l4.9-13.7h12.9ZM35.5,48c.8,0,1.5-.7,1.5-1.5,0-.8-.7-1.5-1.5-1.5-.6,0-1.2.4-1.4,1h-13.1v-2h-5v2H2.9c-.3-.8-1.1-1.2-1.9-.9s-1.2,1.1-.9,1.9c.3.8,1.1,1.2,1.9.9.4-.2.8-.5.9-.9h9.1c-6.6,2.3-11,7.3-11,13h1c0-6.2,5.9-11.7,14-13v2h5v-2c8.1,1.3,14,6.7,14,13h1c0-5.7-4.5-10.7-11-13h9.1c.2.6.7,1,1.4,1M20,48h-3v-3h3v3Z"/>
  </g>
</svg>