<?xml version="1.0" encoding="UTF-8"?>
<svg id="_圖層_1" data-name="圖層_1" xmlns="http://www.w3.org/2000/svg" version="1.1" xmlns:xlink="http://www.w3.org/1999/xlink" viewBox="0 0 1328.27 362.04">
  <!-- Generator: Adobe Illustrator 29.1.0, SVG Export Plug-In . SVG Version: 2.1.0 Build 142)  -->
  <defs>
    <style>
      .st0 {
        fill: #231815;
      }

      .st1 {
        clip-path: url(#clippath-4);
      }

      .st2 {
        fill: url(#_未命名漸層_2);
      }

      .st3 {
        fill: none;
      }

      .st4 {
        clip-path: url(#clippath-1);
      }

      .st5 {
        fill: url(#_未命名漸層_5);
      }

      .st6 {
        clip-path: url(#clippath-3);
      }

      .st7 {
        fill: #1979bf;
      }

      .st8 {
        fill: url(#_未命名漸層_3);
      }

      .st9 {
        clip-path: url(#clippath-2);
      }

      .st10 {
        fill: #040000;
      }

      .st11 {
        fill-rule: evenodd;
      }

      .st11, .st12 {
        fill: #535354;
      }

      .st13 {
        clip-path: url(#clippath);
      }

      .st14 {
        fill: url(#_未命名漸層_4);
      }

      .st15 {
        fill: #af2524;
      }
    </style>
    <clipPath id="clippath">
      <path class="st3" d="M1.63,238.79v121.98c62.74,2.27,56.14-70.53,56.14-70.53,0,0,.24-26.63.44-51.45H1.63Z"/>
    </clipPath>
    <linearGradient id="_未命名漸層_5" data-name="未命名漸層 5" x1="-1387.64" y1="3401.52" x2="-1386.3" y2="3401.52" gradientTransform="translate(310322.9 126820.4) rotate(90) scale(91.22)" gradientUnits="userSpaceOnUse">
      <stop offset="0" stop-color="#e33e5f"/>
      <stop offset=".67" stop-color="#ba1f2a"/>
      <stop offset="1" stop-color="#931e23"/>
    </linearGradient>
    <clipPath id="clippath-1">
      <path class="st3" d="M58.01,252.49c0-29.38,23.81-53.19,53.18-53.19s53.19,23.81,53.19,53.19-23.81,53.18-53.19,53.18-53.18-23.81-53.18-53.18M1.83,252.49c0,60.39,48.97,109.35,109.36,109.35s109.36-48.96,109.36-109.35-48.95-109.37-109.36-109.37S1.83,192.08,1.83,252.49"/>
    </clipPath>
    <linearGradient id="_未命名漸層_2" data-name="未命名漸層 2" x1="-1366.08" y1="3396.99" x2="-1364.74" y2="3396.99" gradientTransform="translate(541245.73 217765.78) rotate(90) scale(159.3)" gradientUnits="userSpaceOnUse">
      <stop offset="0" stop-color="#be1833"/>
      <stop offset=".14" stop-color="#c7223e"/>
      <stop offset=".4" stop-color="#e23d5e"/>
      <stop offset=".41" stop-color="#e33e5f"/>
      <stop offset=".74" stop-color="#e54c67"/>
      <stop offset="1" stop-color="#e95c71"/>
    </linearGradient>
    <clipPath id="clippath-2">
      <path class="st3" d="M1.63,85.91v176.41s3.08,56.05,55.65,70.23c33.43,9.36,91.48-3.35,101.25-55.78-5.88,9.09-22.38,36.06-60.19,27.29-36.64-8.51-39.85-43.11-39.85-55.95s-.72-91.66-.72-91.66c0,0,6.4-70.59-53.29-70.59-.94,0-1.88.02-2.85.05"/>
    </clipPath>
    <linearGradient id="_未命名漸層_3" data-name="未命名漸層 3" x1="-1375.64" y1="3406.68" x2="-1374.31" y2="3406.68" gradientTransform="translate(635483.47 256666.88) rotate(90) scale(186.52)" gradientUnits="userSpaceOnUse">
      <stop offset="0" stop-color="#e53a5b"/>
      <stop offset=".29" stop-color="#e4364a"/>
      <stop offset=".67" stop-color="#db2f2d"/>
      <stop offset="1" stop-color="#ae1e24"/>
    </linearGradient>
    <clipPath id="clippath-3">
      <path class="st3" d="M29.66,0C13.26.14,0,13.49,0,29.93c0,3.68.67,7.21,1.89,10.47,1.33,3.78,4.78,8.78,8.67,12.34,4.79,4.07,12.57,6.02,17.55,7.06,4.23.48,8.19,2.95,9.33,5.67.38.96.99,1.63,5.8-3.93,3.82-4.41,11.86-11.05,14.86-21.52,1.13-3.15,1.74-6.55,1.74-10.08C59.85,13.49,46.6.14,30.19,0h-.54Z"/>
    </clipPath>
    <linearGradient id="_未命名漸層_4" data-name="未命名漸層 4" x1="-1343.13" y1="3361.89" x2="-1341.8" y2="3361.89" gradientTransform="translate(60091.09 -150375.78) scale(44.74)" gradientUnits="userSpaceOnUse">
      <stop offset="0" stop-color="#e53a5b"/>
      <stop offset=".29" stop-color="#e4364a"/>
      <stop offset=".67" stop-color="#db2f2d"/>
      <stop offset="1" stop-color="#db2f2d"/>
    </linearGradient>
    <clipPath id="clippath-4">
      <path class="st15" d="M274.34,282.56c0,.83.15,1.63.43,2.36.3.85,1.08,1.98,1.96,2.79,1.08.92,2.84,1.36,3.96,1.59.95.11,1.85.66,2.11,1.28.09.22.22.37,1.31-.89.86-.99,2.67-2.5,3.35-4.86.25-.71.39-1.47.39-2.27,0-3.73-3.02-6.75-6.75-6.75s-6.75,3.02-6.75,6.75"/>
    </clipPath>
  </defs>
  <g>
    <g class="st13">
      <rect class="st5" x="1.63" y="238.79" width="62.74" height="124.25"/>
    </g>
    <g class="st4">
      <rect class="st2" x="-37.5" y="101.79" width="301.39" height="301.39" transform="translate(-160.91 214.68) rotate(-58)"/>
    </g>
    <g class="st9">
      <rect class="st8" x="1.63" y="85.86" width="156.89" height="256.06"/>
    </g>
    <g class="st6">
      <rect class="st14" x="0" width="59.85" height="67.09"/>
    </g>
  </g>
  <g>
    <path class="st12" d="M986.56,289.66c-14.01,0-25.4,11.39-25.4,25.4s11.4,25.4,25.4,25.4,25.4-11.4,25.4-25.4-11.4-25.4-25.4-25.4M986.56,329.56c-8,0-14.51-6.51-14.51-14.51s6.51-14.51,14.51-14.51,14.51,6.51,14.51,14.51-6.51,14.51-14.51,14.51"/>
    <path class="st12" d="M947.39,313.87c-1.61,0-3.15.61-4.33,1.73l-.3.29c-.74.79-1.38,1.68-1.78,2.46l-.18.29c-3.41,5.43-9.31,8.67-15.77,8.67-10.34,0-18.75-8.41-18.75-18.75s8.41-18.77,18.75-18.77c4.75,0,9.28,1.79,12.77,5.04.28.27.87.86,1.59,1.67.36.43.65.79.9,1.14l.02.03h0c.04.1.09.19.13.28l.14.27h.24c.34.44.67.9.96,1.31.2.39.43.74.7,1.08,1.2,1.49,2.99,2.34,4.9,2.34,3.47,0,6.3-2.82,6.3-6.29,0-.71-.12-1.41-.39-2.16-.2-.56-.48-1.08-.8-1.5-5.62-9.88-16.14-16.02-27.46-16.02-17.42,0-31.59,14.17-31.59,31.59s14.17,31.59,31.59,31.59c11.83,0,22.57-6.53,28.03-17.04l.29-.73h-.07c.27-.71.4-1.45.4-2.21,0-3.47-2.82-6.3-6.3-6.3"/>
    <path class="st12" d="M1098.65,328.75v-17.71c0-.13,0-.25,0-.38,0-.13-.01-.27-.01-.4,0-.17,0-.38-.02-.59h0c-.29-4.46-3.66-19.06-22.36-19.83-.18,0-.39,0-.6.02-3.93.06-9.29,1.15-14.51,7.86l-.24.31-.21-.33c-1.24-1.89-2.79-3.43-4.74-4.7-.26-.16-.53-.33-.81-.5l-.06-.03s-.05-.03-.08-.05c-1.25-.71-2.61-1.24-4.07-1.62-2.74-.84-4.58-1.15-7.44-.95h-.22c-2.43.09-5.67.57-8.93,2.14h0s-.02,0-.07.03c-1.27.62-2.54,1.39-3.76,2.38l-.18.14v.1c-.28.21-.57.44-.85.67-2.65-8.08-11.24-5.82-11.24-5.82v10.7h.06c-.02.23-.06.43-.06.66v28.67h0c0,14.53,12.01,11.36,12.01,11.36v-10.7h-.06c.02-.23.06-.44.06-.66v-15.33h0v-3.18c.02-.14.05-.29.08-.45v.75c.32-2.06.91-3.8,1.79-5.19,1.07-1.56,2.7-3.02,5.2-3.81h.03c.25-.09.52-.16.79-.23.74-.17,1.52-.29,2.37-.35.02,0,.04,0,.05,0,.36-.03.74-.03,1.13-.04.18,0,.36,0,.55,0,.14,0,.28.01.42.02.26.01.52.03.79.05,2.8.27,4.1,1.31,5.8,3.12,2.01,2.15,3.02,5.21,3.02,9.09v14.76c0,4.66,1.24,8.97,3.69,10.88,3.16,2.45,7.43,1.77,8.42,1.57v-11.53h-.1s.06-.48.06-.48c.02-.15.04-.29.04-.44v-3.58c0-.49-.01-.97-.04-1.45v-8.65c0-4.16,1.13-7.47,3.36-9.83,2.34-2.47,4.77-3.53,8.1-3.53,3.64,0,5.84,1.16,7.76,3.19,1.94,2.07,3,5.43,3,9.45v14.4c0,4.67,1.24,8.98,3.69,10.88,3.15,2.44,7.41,1.77,8.39,1.56v-11.53h-.1s.06-.47.06-.47c.02-.15.04-.29.04-.45"/>
    <path class="st12" d="M1107.23,289.52v11.17h.06c-.02.24-.06.45-.06.69v3.64h0v19.08h0c0,15.17,12.54,11.86,12.54,11.86v-11.17h-.06c.03-.24.06-.46.06-.69v-3.63h0v-19.08h0c0-15.17-12.54-11.86-12.54-11.86"/>
    <path class="st12" d="M1146.63,291.92h0c-2.21-1.1-4.63-1.78-7.18-2.04-1.12-.14-2.23-.22-3.28-.22-5.89,0-11.63,2.06-16.16,5.8l-.45.38v-.06c-1.11.9-2.39,2.05-3.4,3.32v.16h-.12c-.7.9-1.25,1.85-1.48,2.8-.52,2.06-.76-.18-.88-2.8h-6.29v51.78c.13,4.33,1.4,7.43,3.79,9.23,3.2,2.42,7.48,1.74,8.47,1.53v-10.54h-.1s.06-.48.06-.48c.02-.15.04-.29.04-.44v-15.97l.45.37c4.52,3.69,10.23,5.73,16.07,5.73.07,0,.13,0,.2,0h.17s.1,0,.1,0c.11,0,.22,0,.33,0,4.13,0,7.9-1.01,11.2-3.01,8.27-4.45,13.39-13.02,13.39-22.39,0-9.94-5.86-19.03-14.93-23.14M1149.81,317.44v.02c-1.16,6.64-6.9,11.45-13.65,11.45-7.64,0-13.85-6.21-13.85-13.85s6.22-13.85,13.85-13.85c6.69,0,12.42,4.77,13.62,11.35.08.86.13,1.71.13,2.56,0,.77-.04,1.56-.1,2.33"/>
    <path class="st12" d="M1208.01,294.79c-.22-.18-.41-.37-.59-.58l-.33-.22c-4.2-2.84-9.1-4.33-14.19-4.33-14.01,0-25.4,11.39-25.4,25.4s11.39,25.4,25.4,25.4c4.7,0,9.2-1.27,13.17-3.69.69-.45,1.99-1.37,3.33-2.71,3.66,5.98,10.04,6.82,10.04,6.82v-16.1h-.06c.03-.24.06-.46.06-.69v-34.57s-8.38-2.21-11.43,5.27M1192.91,328.91c-7.64,0-13.85-6.21-13.85-13.85s6.22-13.85,13.85-13.85,13.85,6.22,13.85,13.85-6.21,13.85-13.85,13.85"/>
    <path class="st12" d="M1226.1,290.53v11.95h.07c-.03.25-.07.49-.07.73v3.89h0v20.42h0c0,16.23,13.41,12.69,13.41,12.69v-11.95h-.07c.03-.25.07-.49.07-.74v-3.89h0v-20.42h0c0-16.23-13.41-12.69-13.41-12.69"/>
    <path class="st12" d="M1261.59,320.9v6.62c0,16.22,11.84,12.68,11.84,12.68v-11.95h-.06c.02-.25.06-.49.06-.74v-6.61h-11.84Z"/>
    <path class="st12" d="M1273.35,328.75v-3.58c0-.27,0-.53-.01-.79v-11.04c0-.12.54-11.82-6.56-18.8-3.89-3.82-9.34-5.55-16.22-5.14v.02h-.37s0,0,0,0c-2.03.04-4.54.32-7.09,1.12-2.46.86-10.44,4.32-12.1,13.47-.33,1.81-.96,3.04-1.79,3.84h9.53c.49-1.18,1.12-2.19,1.9-3.03,2.12-2.29,5.16-3.46,9.04-3.46,3.62,0,6.51,1.14,8.58,3.37,2.03,2.19,2.98,5.15,2.98,9.32v11.04s0,.05,0,.05v3.6c0,4.66,1.24,7.99,3.69,9.89,3.16,2.45,7.43,1.77,8.41,1.57v-10.54h-.1s.06-.47.06-.47c.02-.15.04-.29.04-.45"/>
    <path class="st12" d="M1312.02,296.84h0s-.62,1.41-.62,1.41l-.84,1.92-.28.63-4.49,10.23-1.44,3.29h0s-1.1,2.52-1.1,2.52l-.85,1.76-3.89-8.42-4.11-9.37-.28-.63-.84-1.92-.62-1.41h0c-6.09-13.89-16.24-5.82-16.24-5.82l.32.92,5.92,13.82v-.02s.01.02.01.02h-.01l12.94,29.88-4.09,10.87-5.51,12.09c1.08.95,2.41,1.37,4.07,1.7.82.17,1.72.25,2.67.25,3.19,0,6.14-1.87,7.5-4.76.02-.05.04-.09.06-.13.02-.06.05-.11.07-.17h0s.02-.06.02-.06l12.72-30.28c.43-.74.86-1.55,1.26-2.47h0s1.46-3.33,1.46-3.33l.28-.63,4.49-10.23,1.44-3.29h0s.84-1.92.84-1.92l.62-1.41c.09-.21.15-.43.21-.64l.06.02,4.49-10.23s-10.15-8.07-16.24,5.82"/>
    <g>
      <path class="st10" d="M450.11,325.35c0,2.71-1.39,6.69-3.23,8.69-3.42,3.69-8.45,5.54-15.11,5.54s-11.59-1.44-15.48-4.33c-1.88-1.41-3.4-3.1-4.57-5.08-.03-.06-.02-.14.05-.16l10.09-4.58s.11,0,.14.05c.54,1.25,1.37,2.3,2.51,3.16,1.85,1.39,4.26,2.09,7.25,2.09,2.14,0,3.79-.53,4.92-1.57,1.13-1.04,1.69-2.4,1.69-4.07,0-1.42-.5-2.59-1.47-3.48-.99-.89-2.2-1.58-3.67-2.06-1.45-.48-3.53-1.04-6.21-1.69-3.71-.85-6.69-1.69-8.99-2.56-2.28-.86-4.26-2.25-5.89-4.15-1.64-1.92-2.46-4.54-2.46-7.87,0-4.3,1.63-7.78,4.92-10.46,3.27-2.68,7.81-4.04,13.59-4.04s10.84,1.53,14.49,4.57c2.91,2.43,4.92,5.51,6.05,9.21.06.27.08.59.05.94-.02.08-.03.14-.05.22l-3.98,1.79h-.16l-7.79-2.68s-.03-.03-.05-.05l-.02-.02c-.54-1.17-1.33-2.16-2.28-2.99-1.68-1.42-3.85-2.14-6.53-2.14-2.14,0-3.82.51-5.01,1.52-1.18,1.02-1.79,2.4-1.79,4.12,0,1.37.48,2.48,1.44,3.31.96.83,2.14,1.49,3.58,1.96,1.44.48,3.48,1.05,6.18,1.71,3.75.83,6.8,1.71,9.17,2.63,2.35.93,4.38,2.38,6.07,4.38,1.71,2,2.56,4.68,2.56,8.08"/>
      <path class="st15" d="M287.98,309.46c0-14.81-12.69-11.58-12.69-11.58v10.91h.07c-.03.23-.07.44-.07.67v17.92h0c0,14.81,12.69,11.58,12.69,11.58v-10.91h-.07c.03-.23.07-.45.07-.67v-17.92h0Z"/>
      <path class="st7" d="M274.34,282.56c0,.83.15,1.63.43,2.36.3.85,1.08,1.98,1.96,2.78,1.08.92,2.83,1.36,3.96,1.59.95.11,1.85.67,2.1,1.28.09.22.22.37,1.31-.89.86-1,2.67-2.5,3.35-4.85.25-.71.39-1.48.39-2.27,0-3.73-3.02-6.75-6.75-6.75s-6.75,3.02-6.75,6.75"/>
      <g>
        <path class="st15" d="M274.34,282.56c0,.83.15,1.63.43,2.36.3.85,1.08,1.98,1.96,2.79,1.08.92,2.84,1.36,3.96,1.59.95.11,1.85.66,2.11,1.28.09.22.22.37,1.31-.89.86-.99,2.67-2.5,3.35-4.86.25-.71.39-1.47.39-2.27,0-3.73-3.02-6.75-6.75-6.75s-6.75,3.02-6.75,6.75"/>
        <g class="st1">
          <rect class="st15" x="274.34" y="275.81" width="13.5" height="15.13"/>
        </g>
      </g>
      <path class="st10" d="M399.36,300.53c-2.08-3.66-4.89-6.55-8.48-8.66-3.59-2.14-7.75-3.19-12.46-3.19s-9.1,1.12-13,3.37c-3.9,2.27-6.96,5.3-9.21,9.09-2.25,3.8-3.39,8.13-3.39,12.94s1.15,9.28,3.48,13.13c2.32,3.82,5.45,6.84,9.42,9.02,3.96,2.19,8.51,3.27,13.61,3.27,3.98,0,7.67-.7,11.05-2.12,1.36-.56,2.63-1.23,3.82-2.04.06-.03.11-.06.16-.1.57-.37,1.12-.77,1.64-1.2l-7.11-8.54c-.16.1-.3.21-.45.32-.77.53-1.6.97-2.46,1.34-2.03.85-4.28,1.25-6.76,1.25-2.75,0-6.13-.59-8.19-1.74-.35-.19-.69-.41-1.01-.64-.19-.13-.37-.26-.54-.42-.21-.14-.4-.32-.59-.5-.22-.19-.43-.4-.62-.61-.24-.24-.45-.48-.65-.73-.14-.19-.29-.38-.43-.59-.21-.29-.4-.57-.57-.88-.14-.22-.26-.45-.38-.69-.56-1.04-.96-2.08-1.25-3.02-.4-1.26-.61-2.38-.69-3.18-.02-.19-.03-.4-.05-.59,1.1,1.28,1.95,2.6,1.79,3.93h.97l34.7-.03c.27-1.13.45-2.16.54-3.07.11-.91.16-1.8.16-2.67,0-4.63-1.02-8.8-3.07-12.46M364.89,309.27c1.17-3.74,3.43-5.59,3.43-5.59.85-.96,1.84-1.77,2.97-2.44,2.04-1.21,4.44-1.82,7.19-1.82s4.82.54,6.64,1.61c1.79,1.07,3.31,2.27,4.65,4.6,1.05,1.82.81,2.43,1.05,3.61l-25.94.03Z"/>
      <path class="st10" d="M399.97,328.25c.07,3.42-5.72,8.04-8.78,8.04s-4.47-3.92-4.47-6.98c0-1.73.95-2.99,2.19-3.81.95-.62,2.16-1.18,3.68-1.54,3.48-.84,7.31.72,7.39,4.3"/>
      <path class="st10" d="M448.79,303.5c-.02.08-.03.14-.05.22-.06.26-.16.53-.35.78-1.23,1.53-3.13,2.51-5.27,2.51-2.86,0-5.32-1.76-6.36-4.23l-.02-.02c-.19-.45-.34-.91-.42-1.41l12.46,2.14Z"/>
      <path class="st10" d="M369.39,317.82c-.06.06-.1.1-.16.16-.19.18-.42.36-.72.47-1.86.62-4.03.29-5.79-.74-2.46-1.45-3.52-4.36-3.05-7v-.02c.08-.48.21-.95.41-1.41l9.32,8.54Z"/>
      <path class="st10" d="M422.01,325.48l-.46.14.4-.22s.05.05.06.08"/>
      <path class="st10" d="M421.94,325.4l-.4.22-7.52,4.17-2.33.3-.56-1.21c-.43-2.13.62-4.16,2.67-5.11,2.81-1.31,6.36-.58,8.13,1.61,0,0,.02,0,.02.02"/>
      <path class="st10" d="M421.94,325.4h0s-.17-.19-.17-.19l.17.19Z"/>
      <path class="st10" d="M419.7,323.72s1.75.44,2.76,2.63c-2.39-1.38-2.76-2.63-2.76-2.63"/>
      <path class="st10" d="M422.52,326.44c-.74-1.24-1.47-3.33-5.71-3.86-3.08-.53-9.41,1.14-4.99,7.73,4.71-4.1,5.29-5.27,5.29-5.27l3.46,1.12,1.95.28Z"/>
      <path class="st10" d="M343.29,311.97c-2.3-2.83-5.37-4.63-9.17-5.41,3.34-.77,6.02-2.41,8.08-4.92,2.06-2.51,3.1-5.72,3.1-9.66v-.29c0-.06-.02-.14-.02-.21-.1-4.82-1.82-8.61-5.14-11.31-3.42-2.81-8.32-4.2-14.71-4.2h-26.56v63.15h27.1c6.74,0,11.88-1.55,15.43-4.62,3.42-2.95,5.19-6.96,5.3-12.01v-.02c.02-.19.02-.35.02-.54,0-3.82-1.15-7.14-3.43-9.97M311.49,286.08h11.18c3.34,0,5.81.7,7.43,2.14,1.6,1.44,2.41,3.45,2.41,6.08s-.83,4.63-2.46,6.04c-1.01.85-2.28,1.44-3.83,1.76-1.01.22-2.12.34-3.37.34h-11.35v-16.35ZM331.16,326.63c-1.79,1.47-4.36,2.19-7.7,2.19h-11.98v-17.34h11.88c2.08,0,3.85.29,5.33.88.91.35,1.73.83,2.41,1.41,1.82,1.52,2.73,3.67,2.73,6.48s-.89,4.93-2.68,6.39"/>
      <rect class="st10" x="307.54" y="302.1" width="24.49" height="10.26"/>
      <path class="st10" d="M346.72,322.49c1.07-9.43-3.67-14.42-7.15-15.47,3.29-1.98,6.35-7.87,5.7-15.55-4.41,0-6.2,1.39-6.2,1.39l-9.68,13.08,10.78,7.59,2.7,6.62,3.85,2.34Z"/>
      <path class="st10" d="M477.48,301.96v-1.45h7.03s.08,0,.12,0h5.6v-5.12h-.05c0-.13.03-.25.03-.39,0-1.84-.49-3.23-1.48-4.18-.99-.95-2.4-1.43-4.23-1.43h-7.03v-7.48c0-2.49-.15-3.21-1.4-4.49-1.25-1.28-2.21-1.55-4.64-1.55s-3.37.29-4.68,1.56c-1.31,1.28-1.41,1.98-1.41,4.48v7.43h-11.31v5.12h.01c-.01.19-.04.35-.04.55,0,1.71.51,3.05,1.53,4.04,1.02.98,2.44,1.48,4.28,1.48h5.53v21.8c0,4.4.29,7.47,1.77,10.36,1.48,2.89,2.91,4.16,5.96,5.67,1.66.82,2.11.93,4.21,1.3l10.69-.05v-5.69h-.01c.01-.18.04-.35.04-.55,0-1.71-.51-3.05-1.53-4.04-1.02-.98-2.44-1.48-4.28-1.48h-.09c-4.08-.42-4.59-3.43-4.65-4.5v-21.39h.02Z"/>
    </g>
  </g>
  <g>
    <path class="st0" d="M354.52,202.61c1.31.88,1.97,1.94,1.97,3.18,0,.88-.4,1.83-1.21,2.85-3.58,5.26-9.9,10.27-18.96,15.02,10.45,2.85,21.22,4.64,32.33,5.37,1.39.07,2.34.4,2.85.99.51.58.77,1.24.77,1.97s-.27,1.55-.82,2.47c-.55.91-1.11,1.62-1.7,2.14-1.46,1.39-3.14,2.08-5.04,2.08h-.88c-14.18-1.31-27.8-4.31-40.88-8.99-12.35,4.53-26.08,7.63-41.21,9.32-.59.07-.99.11-1.21.11-2.56,0-4.6-1.17-6.14-3.51-.59-.95-.88-1.79-.88-2.52s.27-1.37.82-1.92,1.44-.9,2.69-1.04c11.47-.95,22.54-2.89,33.21-5.81-5.33-2.63-10.23-5.63-14.69-8.99-5.41,3.22-9.39,5.37-11.95,6.47-.81.29-1.61.44-2.41.44-1.75,0-3.4-.77-4.93-2.3-.95-.95-1.42-1.81-1.42-2.58s.22-1.37.66-1.81c.44-.44,1.02-.8,1.75-1.1,2.7-.95,6.43-2.74,11.18-5.37-2.27-2.19-3.84-3.95-4.71-5.26-1.53-1.97-1.64-3.62-.33-4.93.44-.44,1.06-.8,1.86-1.1.8-.29,1.61-.44,2.41-.44,1.53,0,2.78.62,3.73,1.86.15.07.29.26.44.55.29.51,1.75,1.94,4.38,4.27,4.46-3,8.15-6.1,11.07-9.32-1.61-.51-2.78-1.21-3.51-2.08-.15-.07-.26-.18-.33-.33-.88-1.39-1.32-3.54-1.32-6.47v-7.23c0-1.46.42-2.61,1.26-3.45s2.06-1.26,3.67-1.26,2.83.42,3.67,1.26c.84.84,1.26,1.99,1.26,3.45v7.12c0,.59.07.99.22,1.21l20.6.44c1.32,0,2.15-.22,2.52-.66l.55-2.41c.15-1.17.53-2.04,1.15-2.63.62-.58,1.26-.88,1.92-.88,1.68,0,3.01.49,4,1.48.99.99,1.48,2.32,1.48,4,0,.51-.07,1.13-.22,1.86v.22c0,1.46-.7,3.03-2.08,4.71-.07,0-.15.04-.22.11-1.53,1.61-4.24,2.45-8.11,2.52h-15.89v.22c0,.44-.29.95-.88,1.53l-3.29,3.51,33.98-.33c2.7,0,4.97.66,6.8,1.97ZM352.76,145.4c.8,0,1.68.18,2.63.55,2.12.8,3.18,1.94,3.18,3.4,0,.8-.33,1.64-.99,2.52l-6.36,8.88h13.59c1.83,0,3.23.49,4.22,1.48s1.48,2.39,1.48,4.22v11.73c0,1.39-.44,2.52-1.31,3.4-.88.88-2.16,1.32-3.84,1.32s-2.94-.42-3.78-1.26c-.84-.84-1.26-1.99-1.26-3.45v-7.56c0-.44-.07-.73-.22-.88-.15-.15-.44-.22-.88-.22h-36.17c4.82,2.34,7.82,4.13,8.99,5.37.66.66.99,1.44.99,2.36s-.59,1.99-1.75,3.23c-.88.88-1.79,1.32-2.74,1.32-1.1,0-2.12-.44-3.07-1.32-2.48-2.19-4.75-3.58-6.79-4.16l-.11-.11c-3.44-1.68-5.15-3.51-5.15-5.48,0-.44.07-.84.22-1.21h-27.95c-.44,0-.73.07-.88.22s-.22.44-.22.88v6.8c0,1.46-.42,2.61-1.26,3.45s-2.07,1.26-3.67,1.26-2.83-.42-3.67-1.26c-.84-.84-1.26-1.99-1.26-3.45v-10.96c0-1.83.49-3.23,1.48-4.22s2.39-1.48,4.22-1.48h13.81l-3.84-6.47c-.51-.88-.77-1.73-.77-2.58s.26-1.48.77-1.92c.95-1.02,2.23-1.53,3.84-1.53s3.18.81,4.71,2.41c2.26,1.83,3.4,3.33,3.4,4.49.95,2.19.88,4.06-.22,5.59h38.14l8.11-12.71c1.1-1.75,2.56-2.63,4.38-2.63ZM285.03,149.68c-3.29,0-5.26-1.24-5.92-3.73-.07-.36-.11-.73-.11-1.1,0-.88.29-1.61.88-2.19.88-.8,2.37-1.24,4.49-1.32,32.29-.95,56.04-2.96,71.24-6.03.29-.07.62-.11.99-.11,1.75,0,3.43.95,5.04,2.85,1.17,1.17,1.75,2.16,1.75,2.96,0,.51-.18.97-.55,1.37-.37.4-.91.64-1.64.71-8.55,1.75-22.03,3.33-40.44,4.71-7.89.59-16.07,1.06-24.55,1.42-4.97.29-8.7.44-11.18.44ZM289.2,194.5c-1.24.81-2.47,1.21-3.67,1.21s-2.43-.44-3.67-1.31c-1.1-.95-1.64-1.9-1.64-2.85,0-1.24.8-2.41,2.41-3.51.07-.07.15-.11.22-.11,2.92-1.61,5.04-4.82,6.36-9.65.95-2.48,2.37-3.73,4.27-3.73.58,0,1.21.18,1.86.55,1.9.73,2.85,2.01,2.85,3.84,0,.8-.22,1.75-.66,2.85-1.9,6.21-4.68,10.45-8.33,12.71ZM323.72,219.82c8.04-3.43,13.88-6.94,17.54-10.52h-37.15l-.66.55c5.77,3.8,12.53,7.12,20.28,9.97ZM321.75,161.84c-1.1,0-1.99-.35-2.69-1.04-.7-.69-1.19-1.59-1.48-2.69v-.33c0-.8-.7-2.12-2.08-3.95-.15-.07-.26-.18-.33-.33-.73-1.17-1.1-2.19-1.1-3.07s.26-1.57.77-2.08c.51-.51,1.13-.91,1.86-1.21,1.02-.22,1.68-.33,1.97-.33,1.83,0,3.43.95,4.82,2.85,1.61,1.68,2.67,3.44,3.18,5.26.22.73.33,1.42.33,2.08,0,2.12-1.13,3.62-3.4,4.49-.66.22-1.28.33-1.86.33ZM346.41,181.57c-1.61-1.31-2.41-2.56-2.41-3.73s.58-2.12,1.75-2.85c1.1-.73,2.21-1.1,3.34-1.1s2.32.48,3.56,1.42c1.75,1.17,5,4.13,9.75,8.88,1.46,1.53,2.52,2.74,3.18,3.62,1.61,2.34,1.17,4.42-1.31,6.25-1.1.81-2.16,1.21-3.18,1.21-1.1,0-2.05-.47-2.85-1.42-.15-.07-.26-.18-.33-.33-2.63-4.16-6.47-8.15-11.51-11.95Z"/>
    <path class="st0" d="M420.74,215.22c.95-.88,2.06-1.31,3.34-1.31s2.72.51,4.33,1.53c1.9,1.24,2.85,2.52,2.85,3.84,0,1.02-.51,1.94-1.53,2.74-7.16,5.99-16.37,11.18-27.62,15.56-1.46.36-2.38.55-2.74.55h-.11c-2.05,0-3.91-.84-5.59-2.52-1.1-1.1-1.64-2.12-1.64-3.07,0-1.24.8-2.19,2.41-2.85,3.8-1.32,8.68-3.63,14.63-6.96,5.95-3.32,9.84-5.83,11.67-7.51ZM403.97,145.73c0-1.83.49-3.23,1.48-4.22.99-.99,2.39-1.48,4.22-1.48h63.46c1.83,0,3.23.49,4.22,1.48s1.48,2.39,1.48,4.22v60.17c0,1.83-.49,3.23-1.48,4.22s-2.39,1.48-4.22,1.48h-63.46c-1.83,0-3.23-.49-4.22-1.48-.99-.99-1.48-2.39-1.48-4.22v-60.17ZM415.48,149.9c-.44,0-.75.09-.93.27s-.27.46-.27.82v9.75h53.92v-9.75c0-.44-.07-.73-.22-.88-.15-.15-.44-.22-.88-.22h-51.62ZM468.2,181.35v-11.18h-53.92v11.18h53.92ZM414.28,190.56v10.3c0,.44.07.73.22.88.15.15.47.22.99.22h51.62c.44,0,.73-.07.88-.22.15-.15.22-.44.22-.88v-10.3h-53.92ZM453.73,222.56c-2.05-1.1-3.07-2.34-3.07-3.73,0-1.02.62-2.01,1.86-2.96,2.34-1.1,3.8-1.64,4.38-1.64h.11c1.46,0,2.96.4,4.49,1.21,11.84,5.77,20.68,10.63,26.52,14.58.95.66,1.42,1.42,1.42,2.3,0,1.17-.88,2.48-2.63,3.95-1.83,1.53-3.51,2.3-5.04,2.3-.88,0-1.68-.26-2.41-.77-5.63-4.17-14.18-9.24-25.65-15.23Z"/>
    <path class="st0" d="M562.43,203.88c.84.84,1.26,2.03,1.26,3.56s-.4,2.7-1.21,3.51c-.8.81-1.97,1.21-3.51,1.21h-47.9c-1.46,0-2.61-.42-3.45-1.26-.84-.84-1.26-2.01-1.26-3.51s.42-2.67,1.26-3.51c.84-.84,1.99-1.26,3.45-1.26h5.92v-43.51h-4.27c-1.46,0-2.61-.42-3.45-1.26-.84-.84-1.26-2.01-1.26-3.51s.42-2.67,1.26-3.51,1.99-1.26,3.45-1.26h4.27v-8.88c0-1.46.42-2.61,1.26-3.45.84-.84,2.03-1.26,3.56-1.26s2.72.42,3.56,1.26c.84.84,1.26,1.99,1.26,3.45v8.88h18.52v-8.88c0-1.46.42-2.61,1.26-3.45s2.04-1.26,3.62-1.26,2.78.42,3.62,1.26c.84.84,1.26,1.99,1.26,3.45v8.88h3.51c1.46,0,2.61.42,3.45,1.26.84.84,1.26,2.03,1.26,3.56s-.4,2.7-1.21,3.51c-.81.8-1.97,1.21-3.51,1.21h-3.51v43.51h4.06c1.46,0,2.61.42,3.45,1.26ZM515.35,237.03h-.22c-1.17,0-2.41-.48-3.73-1.42-1.46-1.1-2.19-2.27-2.19-3.51,0-1.02.55-2.01,1.64-2.96,4.24-3.29,7.31-7.27,9.21-11.95.07,0,.11-.04.11-.11,1.17-2.48,2.85-3.73,5.04-3.73.66,0,1.35.11,2.08.33,1.02.29,1.84.75,2.47,1.37.62.62.93,1.37.93,2.25,0,.95-.22,1.86-.66,2.74-2.63,6.07-6.43,11.18-11.4,15.34-1.75,1.1-2.85,1.64-3.29,1.64ZM526.64,167.32h18.52v-8.22h-18.52v8.22ZM545.17,184.53v-8.55h-18.52v8.55h18.52ZM545.17,202.61v-9.43h-18.52v9.43h18.52ZM539.47,220.37c-.59-.95-.88-1.86-.88-2.74,0-1.39.84-2.48,2.52-3.29.88-.44,1.75-.66,2.63-.66,1.53,0,2.85.73,3.95,2.19l6.14,8.22c.66.95.99,1.86.99,2.74,0,1.46-.91,2.67-2.74,3.62-1.02.51-2.05.77-3.07.77-1.39,0-2.59-.77-3.62-2.3l-5.92-8.55ZM606.32,172.26c1.46,0,2.61.42,3.45,1.26.84.84,1.26,2.07,1.26,3.67s-.42,2.83-1.26,3.67c-.84.84-1.99,1.26-3.45,1.26h-7.01v52.61c0,1.46-.42,2.61-1.26,3.45-.84.84-2.05,1.26-3.62,1.26s-2.78-.42-3.62-1.26c-.84-.84-1.26-1.99-1.26-3.45v-52.61h-14.69v3.95c0,11.98-1.13,22.38-3.4,31.18-2.27,8.81-5.96,15.76-11.07,20.88-1.02,1.02-2.12,1.53-3.29,1.53s-2.36-.6-3.56-1.81-1.81-2.38-1.81-3.51.47-2.28,1.42-3.45h.11c4.09-4.24,7.11-10.17,9.04-17.81,1.94-7.63,2.9-16.68,2.9-27.13v-34.19c0-1.75.55-3.18,1.64-4.27,1.1-1.1,2.67-1.86,4.71-2.3,12.13-2.63,21.44-5.59,27.95-8.88.51-.29,1.17-.44,1.97-.44,1.68,0,3.54,1.02,5.59,3.07,1.1,1.1,1.64,2.08,1.64,2.96,0,.95-.59,1.64-1.75,2.08-6.07,3-16.07,6.07-30.03,9.21-.81.15-1.35.37-1.64.66s-.44.66-.44,1.1v17.32h31.46Z"/>
    <path class="st0" d="M630.79,208.2c.66-.73,1.55-1.1,2.69-1.1s2.08.38,2.85,1.15c.77.77,1.15,1.88,1.15,3.34,0,.51-.04,1.1-.11,1.75-.73,7.45-2.08,13.96-4.06,19.51-.29.88-.71,1.59-1.26,2.14-.55.55-1.19.82-1.92.82s-1.46-.15-2.19-.44c-.73-.29-1.39-.73-1.97-1.32s-.88-1.35-.88-2.3c0-.73.04-1.21.11-1.42,1.61-4.02,2.85-9.94,3.73-17.76.29-2.04.91-3.51,1.86-4.38ZM644.82,137.07c.73-.73,1.53-1.1,2.41-1.1,1.83,0,3.4.62,4.71,1.86.66.73.99,1.53.99,2.41s-.22,1.75-.66,2.63c-4.02,9.21-8.73,17.54-14.14,24.99l9.1-.99,6.25-11.73c.8-1.68,1.97-2.52,3.51-2.52.88,0,1.83.29,2.85.88,1.68,1.02,2.52,2.34,2.52,3.95,0,.8-.26,1.72-.77,2.74-6.07,11.77-13.19,22.47-21.37,32.11l15.78-2.19-2.41-5.92c-.22-.8-.33-1.61-.33-2.41,0-.88.27-1.59.82-2.14s1.15-.93,1.81-1.15c.66-.22,1.21-.33,1.64-.33,1.02,0,1.83.31,2.41.93.58.62,1.06,1.44,1.42,2.47l5.26,14.47c.22.73.33,1.42.33,2.08,0,1.83-.95,3.14-2.85,3.95-.66.22-1.35.33-2.08.33-.8,0-1.48-.31-2.03-.93-.55-.62-1.01-1.44-1.37-2.47l-.22-.99c-9.86,1.53-16.97,2.72-21.32,3.56-4.35.84-6.63,1.35-6.85,1.53-.22.18-.51.27-.88.27s-.73-.18-1.1-.55c-.59-.58-1.21-1.72-1.86-3.4v-.11c-.22-.88-.33-1.79-.33-2.74s.27-1.72.82-2.3c.55-.58,1-.88,1.37-.88.8-.58,2.56-2.63,5.26-6.14,2.12-2.48,4.78-6.25,8-11.29-6.07.73-9.83,1.35-11.29,1.86-.22.15-.59.22-1.1.22s-1.06-.29-1.64-.88c-.59-.58-1.17-1.57-1.75-2.96-.29-1.17-.44-2.19-.44-3.07,0-1.24.4-2.04,1.21-2.41.15-.07.26-.11.33-.11.22-.07.47-.26.77-.55,1.97-2.04,5.37-7.52,10.19-16.44,2.85-5.48,4.78-9.72,5.81-12.71.36-.8.77-1.42,1.21-1.86ZM641.86,211.71c0-2.92,1.02-4.6,3.07-5.04.29-.07.58-.11.88-.11.95,0,1.81.37,2.58,1.1.77.73,1.3,1.9,1.59,3.51,1.02,5.19,1.68,10.49,1.97,15.89v.66c0,2.56-1.17,4.13-3.51,4.71-.59.15-1.21.22-1.86.22s-1.26-.26-1.81-.77c-.55-.51-.86-1.24-.93-2.19v-.11c-.07-3.73-.7-9.02-1.86-15.89v-.22c-.07-.66-.11-1.24-.11-1.75ZM654.13,207.99c0-1.83.88-3.07,2.63-3.73.51-.15,1.02-.22,1.53-.22,1.68,0,2.89,1.1,3.62,3.29,3,9.72,4.49,14.61,4.49,14.69.15.66.22,1.28.22,1.86,0,1.9-.95,3.21-2.85,3.95-.51.15-1.02.22-1.53.22-1.68,0-2.89-1.1-3.62-3.29-2.85-9.94-4.31-15.07-4.38-15.4-.07-.33-.11-.78-.11-1.37ZM713.76,239.22h-1.21c-3.8,0-6.21-1.42-7.23-4.27-.22-.81-.33-1.59-.33-2.36s.26-1.41.77-1.92c.51-.51,1.17-.77,1.97-.77.8.07,3.51.11,8.11.11.29,0,.53-.09.71-.27.18-.18.27-.46.27-.82v-78.25c0-.44-.07-.73-.22-.88-.15-.15-.48-.22-.99-.22h-37.7c-.44,0-.73.07-.88.22s-.22.44-.22.88v84.06c0,1.46-.42,2.61-1.26,3.45-.84.84-2.03,1.26-3.56,1.26s-2.7-.4-3.51-1.21c-.8-.81-1.21-1.97-1.21-3.51v-88.89c0-1.83.49-3.23,1.48-4.22.99-.99,2.39-1.48,4.22-1.48h47.68c1.83,0,3.23.49,4.22,1.48.99.99,1.48,2.39,1.48,4.22v83.08c0,2.48-.33,4.35-.99,5.59-.66,1.32-1.94,2.48-3.84,3.51-1.68.8-4.27,1.21-7.78,1.21ZM711.67,169.41c1.53,0,2.7.4,3.51,1.21.8.8,1.21,1.85,1.21,3.12s-.4,2.32-1.21,3.12c-.8.81-1.97,1.21-3.51,1.21h-29.26c-1.53,0-2.7-.4-3.51-1.21-.8-.8-1.21-1.84-1.21-3.12s.4-2.32,1.21-3.12,1.97-1.21,3.51-1.21h16.88l4.06-14.36c.29-1.02.75-1.84,1.37-2.47s1.44-.93,2.47-.93c.44,0,1,.11,1.7.33.69.22,1.33.62,1.92,1.21.58.59.88,1.26.88,2.03s-.11,1.52-.33,2.25l-4.16,11.95h4.49ZM691.29,182.78c-.44-.88-.66-1.75-.66-2.63,0-1.39.77-2.41,2.3-3.07.58-.15,1.1-.22,1.53-.22,1.68,0,3.03.95,4.06,2.85l1.53,2.74c.66,1.17.99,2.21.99,3.12s-.22,1.7-.66,2.36h9.97c1.53,0,2.7.4,3.51,1.21.8.8,1.21,1.85,1.21,3.12s-.4,2.32-1.21,3.12c-.81.8-1.97,1.21-3.51,1.21h-18.41v9.97c0,.88.04,1.57.11,2.08l.22.44c.15.22.62.33,1.42.33l16.55-.55c1.75,0,3.03.44,3.84,1.32.66.66,1.06,1.53,1.21,2.63v.55c0,1.02-.33,1.88-.99,2.58-.66.7-1.79,1.04-3.4,1.04l-17.86.55c-3.87,0-6.5-.8-7.89-2.41h-.11c-1.32-1.68-1.97-4.57-1.97-8.66v-9.86c-1.31-.07-2.34-.47-3.07-1.21-.73-.73-1.1-1.75-1.1-3.07s.4-2.37,1.21-3.18,1.94-1.21,3.4-1.21h10.08l-2.3-5.15ZM693.26,161.19c.22.95.33,1.92.33,2.9s-.18,1.96-.55,2.9c-.15.29-.33.59-.55.88-.51.44-1.19.66-2.03.66s-1.99-.51-3.45-1.53c-.22-.15-.37-.36-.44-.66l-2.96-8.33c-.59-1.31-.88-2.41-.88-3.29,0-1.53.69-2.56,2.08-3.07.44-.15.84-.22,1.21-.22,1.75,0,3.36,1.39,4.82,4.16,1.68,2.63,2.52,4.38,2.52,5.26,0,.15-.04.26-.11.33Z"/>
    <path class="st0" d="M762.56,177.3h-10.63c-1.83,0-3.23-.49-4.22-1.48-.99-.99-1.48-2.39-1.48-4.22v-26.19c0-1.83.49-3.23,1.48-4.22.99-.99,2.39-1.48,4.22-1.48h28.39c1.83,0,3.23.49,4.22,1.48s1.48,2.39,1.48,4.22v23.78c.29-.29.66-.62,1.1-.99,7.74-7.74,13.3-17.35,16.66-28.82.88-2.56,2.52-3.84,4.93-3.84.58,0,1.21.07,1.86.22,2.56.66,3.84,2.01,3.84,4.06,0,.73-.07,1.31-.22,1.75l-2.08,5.04,18.96-.33c2.63,0,4.93.48,6.9,1.42,1.53.66,2.3,1.86,2.3,3.62,0,.73-.15,1.53-.44,2.41-2.7,8.77-7.86,17.79-15.45,27.07,7.74,7.31,15.12,12.27,22.14,14.91,1.75.73,2.63,1.79,2.63,3.18,0,.95-.48,2.08-1.42,3.4-1.46,1.83-3.07,2.74-4.82,2.74-.44,0-.88-.07-1.32-.22v28.5c0,1.83-.49,3.23-1.48,4.22s-2.39,1.48-4.22,1.48h-36.17c-1.83,0-3.23-.49-4.22-1.48s-1.48-2.39-1.48-4.22v-28.39l-1.64.77c-1.1.51-2.12.77-3.07.77-1.75,0-3.29-.88-4.6-2.63l-1.42-1.97h-10.74v18.52l10.52-2.41c.51-.07.95-.11,1.31-.11,1.1,0,2.01.37,2.74,1.1.22.73.47,1.44.77,2.14.29.7.44,1.15.44,1.37,0,1.32-.55,2.5-1.64,3.56-1.1,1.06-2.92,1.95-5.48,2.69h-.11c-24.4,5.77-36.97,8.66-37.7,8.66-.44,0-.77-.11-.99-.33-.37-.44-.8-1.86-1.31-4.27-.07-.66-.11-1.21-.11-1.64,0-1.32.35-2.34,1.04-3.07.69-.73,1.55-1.17,2.58-1.32l1.64-.44v-35.29c0-1.46.42-2.61,1.26-3.45s1.97-1.26,3.4-1.26,2.56.42,3.4,1.26c.84.84,1.26,1.99,1.26,3.45v33.32l7.01-1.53v-45.48ZM757.08,149.24c-.44,0-.75.09-.93.27s-.27.46-.27.82v16.11c0,.44.09.75.27.93.18.18.49.27.93.27h17.75c.44,0,.73-.07.88-.22.15-.15.22-.47.22-.99v-16.11c0-.44-.07-.73-.22-.88-.15-.15-.44-.22-.88-.22h-17.75ZM785.68,174.67c-.73,1.75-2.52,2.63-5.37,2.63h-7.78v14.8h8.66c1.68,0,3,.46,3.95,1.37.95.91,1.5,2.14,1.64,3.67,8.91-3.95,17.02-9.5,24.33-16.66-3.36-4.31-6.54-8.99-9.54-14.03-2.63,4.09-4.9,7.01-6.79,8.77-2.48,2.7-5.08,2.89-7.78.55l-1.31-1.1ZM831.6,199.44c-4.53-3.07-9.13-6.9-13.81-11.51-4.38,4.38-9.1,8.22-14.14,11.51h27.95ZM804.09,228.26c0,.44.07.73.22.88.15.15.44.22.88.22h24.99c.44,0,.73-.07.88-.22.15-.15.22-.44.22-.88v-19.4h-27.18v19.4ZM827.33,156.25h-19.73l-.66,1.21c2.92,5.77,6.43,11.11,10.52,16,4.82-6.06,8.22-11.62,10.19-16.66.07,0,.13-.05.16-.16.04-.11.06-.2.06-.27-.15-.07-.33-.11-.55-.11Z"/>
    <path class="st0" d="M931.8,239h-1.86c-3.95,0-6.54-1.57-7.78-4.71-.29-1.02-.44-1.94-.44-2.74s.24-1.44.71-1.92c.47-.48,1.11-.71,1.92-.71h.11c1.61.15,6.14.22,13.59.22.66,0,1.1-.13,1.32-.38.22-.26.33-.57.33-.93v-10.74h-46.36c-1.83,9.43-4.9,16.04-9.21,19.84-.88,1.02-1.86,1.53-2.96,1.53-1.24,0-2.48-.7-3.73-2.08-1.24-1.39-1.86-2.7-1.86-3.95,0-1.31.55-2.52,1.64-3.62,2.26-2.05,4.06-5.59,5.37-10.63,1.32-5.19,1.97-11.11,1.97-17.76v-13.7c-5.04,5.92-9.64,10.3-13.81,13.15-1.39.66-2.27.99-2.63.99h-.11c-1.46,0-2.81-.77-4.06-2.3-1.02-1.24-1.53-2.37-1.53-3.4,0-1.31.66-2.41,1.97-3.29,10.01-6.72,18.78-17.65,26.3-32.77h-22.69c-1.46,0-2.61-.42-3.45-1.26-.84-.84-1.26-2.06-1.26-3.67s.44-2.92,1.32-3.73c.88-.8,2.01-1.21,3.4-1.21h27.18l3.51-10.3c.8-2.26,2.34-3.4,4.6-3.4.66,0,1.31.07,1.97.22,2.56.66,3.84,2.01,3.84,4.06,0,.66-.07,1.24-.22,1.75l-2.74,7.67h52.17c1.39,0,2.5.42,3.34,1.26.84.84,1.26,2.06,1.26,3.67s-.42,2.83-1.26,3.67c-.84.84-1.96,1.26-3.34,1.26h-56.22l-5.92,10.96h48c1.83,0,3.23.49,4.22,1.48s1.48,2.39,1.48,4.22v52.06c0,2.78-.4,4.86-1.21,6.25-.8,1.53-2.36,2.74-4.66,3.62-2.3.88-6.38,1.32-12.22,1.32ZM894.87,179.6v9.43h44.83v-8.22c0-.44-.09-.75-.27-.93-.18-.18-.49-.27-.93-.27h-43.62ZM939.7,198.12h-44.83v9.86h44.83v-9.86Z"/>
    <path class="st0" d="M1007.35,149.02h-12.27c-.44,0-.73.07-.88.22s-.22.44-.22.88v84.28c0,1.46-.42,2.61-1.26,3.45-.84.84-1.99,1.26-3.45,1.26s-2.61-.42-3.45-1.26c-.84-.84-1.26-1.99-1.26-3.45v-89.43c0-1.75.49-3.12,1.48-4.11s2.36-1.48,4.11-1.48l23.45-.33c.22,0,.78.26,1.7.77.91.51,1.55.99,1.92,1.42,1.02,1.02,1.53,2.34,1.53,3.95,0,1.24-.26,2.59-.77,4.05-4.31,9.79-7.16,17.06-8.55,21.81-.07.15-.11.33-.11.55,0,.73.26,1.35.77,1.86,5.92,6.72,8.88,14.47,8.88,23.23,0,6.87-1.57,11.44-4.71,13.7-1.68,1.31-3.69,2.12-6.03,2.41h-4.27c-2.92,0-4.86-1.42-5.81-4.27-.15-.51-.22-.99-.22-1.42,0-.88.29-1.61.88-2.19.73-.73,1.9-1.1,3.51-1.1l1.75.11c1.39,0,2.59-.4,3.62-1.21,1.24-.88,1.86-3.14,1.86-6.8,0-7.45-2.3-13.59-6.9-18.41h-.11c-1.46-1.83-2.19-3.69-2.19-5.59,0-.95.18-1.9.55-2.85,2.41-5.84,4.6-12.2,6.58-19.07.15-.29.22-.55.22-.77v-.22h-.33ZM1023.68,145.4c0-1.83.49-3.23,1.48-4.22s2.39-1.48,4.22-1.48h39.57c1.83,0,3.23.49,4.22,1.48s1.48,2.39,1.48,4.22v39.57c0,1.83-.49,3.23-1.48,4.22s-2.39,1.48-4.22,1.48h-16.88c1.61,5.55,3.51,10.38,5.7,14.47,6.5-4.31,11.14-7.71,13.92-10.19.95-.88,1.97-1.31,3.07-1.31,1.24,0,2.41.66,3.51,1.97,2.12,2.27,2.3,4.27.55,6.03l-.44.44c-3.58,2.92-8.4,6.25-14.47,9.97-.59.29-.88.6-.88.93s.11.71.33,1.15c4.75,6.72,10.19,11.33,16.33,13.81,1.68.73,2.52,1.75,2.52,3.07,0,1.02-.55,2.19-1.64,3.51-1.46,1.9-3.07,2.85-4.82,2.85-.73,0-1.5-.22-2.3-.66-14.4-6.72-24.62-22.07-30.69-46.03h-9.1v34.63l15.02-3.73c.51-.07.95-.11,1.32-.11,1.1,0,1.97.33,2.63.99.73.81,1.1,1.9,1.1,3.29s-.55,2.67-1.64,3.84c-1.1,1.1-2.81,1.94-5.15,2.52-13.3,3.65-20.31,5.81-21.04,6.47-.29.22-.66.33-1.1.33-.51,0-1.02-.27-1.53-.82-.51-.55-1.13-1.48-1.86-2.79-.51-1.1-.77-2.19-.77-3.29,0-1.24.62-2.38,1.86-3.4.15-.22.33-.33.55-.33.36-.66.58-2.19.66-4.6v-78.25ZM1034.85,149.13c-.44,0-.75.09-.93.27s-.27.46-.27.82v10.3h30.91v-10.3c0-.51-.05-.82-.16-.93-.11-.11-.38-.16-.82-.16h-28.72ZM1033.65,181.46h29.92c.36,0,.62-.07.77-.22.15-.15.22-.47.22-.99v-10.74h-30.91v11.95Z"/>
    <path class="st0" d="M1130.67,139.16c.8,0,1.81.18,3.01.55,1.21.37,2.15.88,2.85,1.53.69.66,1.04,1.46,1.04,2.41,0,.59-.15,1.24-.44,1.97-3.07,7.01-7.56,14.8-13.48,23.34-5.85,8.48-11.07,14.8-15.67,18.96-.88.88-1.86,1.31-2.96,1.31-1.53,0-3.18-.88-4.93-2.63-1.39-1.39-2.08-2.67-2.08-3.84,0-1.1.55-2.08,1.64-2.96,4.31-3.58,9.21-9.21,14.69-16.88,5.41-7.74,9.35-14.69,11.84-20.82.88-1.97,2.37-2.96,4.49-2.96ZM1113.03,233.19c-1.75,0-3.18-1.5-4.27-4.49-.44-1.39-.66-2.59-.66-3.62,0-1.46.55-2.45,1.64-2.96.15-.07.26-.11.33-.11h.11c.29-.15.97-.75,2.03-1.81s2.9-3.27,5.53-6.63h.11c2.92-3.29,7.31-9.32,13.15-18.08,5.84-8.77,10.3-16.33,13.37-22.69.8-1.68,2.15-2.52,4.06-2.52,1.02,0,2.15.26,3.4.77,1.24.51,2.21,1.11,2.9,1.81.69.69,1.04,1.52,1.04,2.47s-.26,1.86-.77,2.74c-9.21,16.66-19,30.94-29.37,42.85l47.9-2.63c-4.09-6.43-7.71-11.65-10.85-15.67-.66-.95-.99-1.86-.99-2.74s.31-1.61.93-2.19c.62-.58,1.41-1.1,2.36-1.53.95-.44,1.9-.66,2.85-.66,1.9,0,3.58.95,5.04,2.85,9.28,12.28,16.26,22.76,20.93,31.46.29.51.44,1.13.44,1.86,0,1.61-1.13,3.07-3.4,4.38-1.61.95-2.89,1.42-3.84,1.42-1.39,0-2.34-.55-2.85-1.64-.37-.66-1.9-3.36-4.6-8.11-30.76,2.19-48.55,3.49-53.38,3.89-4.82.4-8.07.71-9.75.93l-2.19.44c-.29.15-.7.22-1.21.22ZM1148.21,148.03c-1.39,0-2.52-.44-3.4-1.31-.88-.88-1.31-2.17-1.31-3.89s.42-3,1.26-3.84,1.92-1.26,3.23-1.26h19.4c3.29,0,5.44,1.57,6.47,4.71,1.83,6.14,5.37,13.08,10.63,20.82,5.19,7.67,10.05,12.93,14.58,15.78,1.24.81,1.86,1.83,1.86,3.07s-.7,2.7-2.08,4.38c-1.61,1.83-3.18,2.74-4.71,2.74-.95,0-1.86-.33-2.74-.99-4.31-3.29-9.13-8.73-14.47-16.33-5.26-7.6-9.21-15.09-11.84-22.47-.07-.36-.26-.67-.55-.93-.29-.26-.73-.42-1.31-.49h-15.02Z"/>
    <path class="st0" d="M1300.91,153.19c0-.44-.09-.75-.27-.93-.18-.18-.46-.27-.82-.27h-74.86c-1.46,0-2.61-.42-3.45-1.26-.84-.84-1.26-2.08-1.26-3.73s.42-2.89,1.26-3.73,1.99-1.26,3.45-1.26h80.67c1.83,0,3.23.49,4.22,1.48.99.99,1.48,2.39,1.48,4.22v78.14c0,3.07-.4,5.44-1.21,7.12-.88,1.83-2.59,3.2-5.15,4.11-2.56.91-7.6,1.37-15.12,1.37-4.02,0-6.61-1.68-7.78-5.04-.22-.8-.33-1.59-.33-2.36s.29-1.44.88-2.03c.8-.8,2.04-1.21,3.73-1.21l6.79.11c1.75,0,3.18-.04,4.27-.11l3.29-.44c.15-.15.22-.66.22-1.53v-72.66ZM1285.45,161.73c1.46,0,2.61.42,3.45,1.26.84.84,1.26,1.99,1.26,3.45s-.42,2.61-1.26,3.45c-.84.84-1.99,1.26-3.45,1.26h-59.73c-1.46,0-2.61-.42-3.45-1.26-.84-.84-1.26-2.01-1.26-3.51s.4-2.65,1.21-3.45c.8-.8,1.9-1.21,3.29-1.21h59.95ZM1282.49,213.14c0,1.83-.49,3.23-1.48,4.22-.99.99-2.39,1.48-4.22,1.48h-42.96c-1.83,0-3.23-.49-4.22-1.48s-1.48-2.39-1.48-4.22v-26.19c0-1.83.49-3.23,1.48-4.22s2.39-1.48,4.22-1.48h42.96c1.83,0,3.23.49,4.22,1.48.99.99,1.48,2.39,1.48,4.22v26.19ZM1238.33,208.31c0,.44.09.75.27.93.18.18.46.27.82.27h31.78c.44,0,.73-.07.88-.22s.22-.47.22-.99v-16.55c0-.44-.09-.75-.27-.93-.18-.18-.46-.27-.82-.27h-31.78c-.44,0-.73.07-.88.22s-.22.48-.22.99v16.55Z"/>
  </g>
  <path class="st12" d="M764.49,290.4c-13.54,0-24.49,10.97-24.49,24.49s10.95,24.49,24.49,24.49,24.49-10.96,24.49-24.49-10.98-24.49-24.49-24.49M764.49,328.47c-7.49,0-13.57-6.08-13.57-13.57s6.08-13.57,13.57-13.57,13.57,6.08,13.57,13.57-6.08,13.57-13.57,13.57"/>
  <path class="st11" d="M817.19,292.89c-1.54.73-3,1.61-4.35,2.63-2.03,1.53-3.02,2.55-4.47,4.58-1.5-12.52-12.92-9.51-12.92-9.51v11.65h.07c-.03.25-.07.47-.07.72v3.79h0v19.91h0c0,15.82,13.08,12.37,13.08,12.37v-11.65h-.07c.03-.25.07-.48.07-.72v-3.79h0v-8.66c.72-3.23,1.56-6.33,4.46-8.64.68-.54,1.41-1.04,2.19-1.49.65-.37,1.32-.7,1.99-.98,4.1-1.69,8.77-.51,8.77-7.58v-5.02c-3.59.09-5.71.94-8.77,2.39"/>
  <path class="st12" d="M851.99,312.03c6.79-6.2,13.57-12.39,20.36-18.59-3.54-3.45-9.11-5.68-14.96-.01-3.05,2.95-8.19,7.61-11.63,10.76l-2.01,1.84v-14.9h0v-2.93c0-.19-.03-.36-.05-.54h.05v-9s-10.1-2.67-10.1,9.55h0v38.48h0v2.93c0,.19.03.36.05.55h-.05v9s10.1,2.67,10.1-9.55h0v-10.04l.75-.69c5.02,6.32,7.46,11.35,13.16,16.96,4.47,4.39,12.32,3.3,15.39,2.71-7.02-8.84-14.04-17.67-21.06-26.51"/>
  <path class="st12" d="M612.2,293.56c-3.4-2.02-7.32-3.02-11.77-3.02s-8.6,1.06-12.29,3.18c-3.68,2.14-6.58,5.01-8.71,8.59-2.13,3.59-3.2,7.68-3.2,12.23s1.09,8.77,3.29,12.41c2.19,3.61,5.15,6.46,8.91,8.53,3.74,2.07,8.04,3.09,12.86,3.09,3.76,0,7.25-.66,10.45-2.01,1.28-.53,2.49-1.16,3.61-1.93.05-.03.09-.05.13-.08,2.63-1.47,5.37-4.33,5.32-6.62-.07-3.38-3.69-4.85-6.98-4.06-1.44.35-2.58.87-3.48,1.46-.15.09-.29.2-.42.3-.73.5-1.51.92-2.33,1.27-1.92.8-4.04,1.18-6.38,1.18-2.6,0-5.8-.56-7.74-1.64-.33-.18-.65-.39-.95-.6-.18-.12-.35-.24-.51-.39-.2-.14-.38-.3-.56-.47-.21-.18-.41-.38-.59-.57-.23-.23-.42-.45-.62-.69-.14-.18-.27-.36-.41-.56-.2-.27-.38-.54-.54-.83-.14-.21-.24-.42-.36-.65-.53-.98-.9-1.96-1.18-2.85.33.07.66.12.99.14h0s.06,0,.06,0c.26.02.52.02.78,0h.08l32.8-.03c.26-1.07.42-2.04.51-2.9.11-.86.15-1.7.15-2.52,0-4.38-.97-8.32-2.9-11.77-1.96-3.46-4.62-6.19-8.02-8.18M587.65,310c1.1-3.53,3.24-5.28,3.24-5.28.8-.91,1.74-1.68,2.81-2.31,1.93-1.15,4.2-1.72,6.79-1.72s4.56.51,6.28,1.52c1.69,1.01,3.12,2.14,4.39,4.35,1,1.72.77,2.29,1,3.41l-24.51.03Z"/>
  <path class="st12" d="M662.65,296.52c0-1.74-.46-3.06-1.4-3.95-.93-.9-2.26-1.35-4-1.35h-6.64v-7.07c0-2.36-.15-3.04-1.32-4.25-1.18-1.21-2.09-1.46-4.39-1.46s-3.18.27-4.42,1.48c-1.24,1.21-1.33,1.87-1.33,4.23v7.02h-10.69v4.84h.01c-.01.17-.04.34-.04.52,0,1.61.48,2.88,1.44,3.82.96.93,2.31,1.4,4.05,1.4h5.22v20.61c0,4.16.28,7.06,1.67,9.79,1.4,2.73,2.75,3.93,5.63,5.36,1.57.78,3.7,1.23,5.78,1.23l8.3-.05v-5.38h-.01c.01-.17.04-.33.04-.52,0-1.61-.48-3.41-1.44-4.34-.96-.93-2.31-1.4-4.05-1.4h-.09c-3.85-.39-4.34-2.72-4.39-3.73v-20.22h.02v-1.37h6.64s.08,0,.12,0h5.3v-4.84h-.04c0-.12.03-.24.03-.36"/>
  <path class="st12" d="M569.89,284.5v-6.11h-6.67v.06c-1.59.12-2.86.63-3.75,1.57-1.03,1.08-1.54,2.59-1.54,4.53v31.88l-26.92-34.28c-1.05-1.33-1.98-2.28-2.78-2.87-.8-.58-1.95-.87-3.45-.87-1.72,0-3.09.56-4.11,1.66-1.03,1.11-1.54,2.71-1.54,4.82v53.59h6.67v-.05c1.64-.12,2.92-.62,3.8-1.57,1-1.08,1.5-2.61,1.5-4.61v-31.97l26.92,34.38c1.05,1.33,2.04,2.3,2.95,2.91s2.15.91,3.7.91,2.88-.54,3.82-1.62c.94-1.08,1.41-2.53,1.41-4.36v-47.94s0-.03,0-.04"/>
  <path class="st12" d="M731.3,290.4h-6.96l-3.49,10.21-5.5,16.06-3.57-10.43-5.42-15.83h-6.07s-1.31,0-1.31,0h-2.07s-8.99,26.27-8.99,26.27l-3.57-10.43-5.42-15.83h-6.96c-2.59,0-3.63,2.6-2.51,5.88l1.69,4.96.8,2.33,1.13,3.29,3.71,10.84,3.71,10.84.11.32.74,2.17,1.56,4.69c.52,1.28,1.2,2.21,2.04,2.79.84.58.93.87,2.13.87s3.14-.31,3.98-.93c.84-.62,1.5-1.55,1.98-2.79l1.44-4.63.86-2.5,2.58-7.55,1.13-3.29,2.59-10.26,2.59,10.26,3.71,10.84.11.32,1.18,3.44,1.14,3.43c.52,1.28,1.2,2.21,2.04,2.79.84.58,1.86.87,3.06.87s2.22-.31,3.06-.93c.84-.62,1.5-1.55,1.98-2.79l1.44-4.63h-.01l.86-2.5,2.58-7.55,1.13-3.29,3.71-10.84,1.92-5.62h0s1.69-4.97,1.69-4.97c1.12-3.27.08-5.87-2.51-5.87"/>
</svg>